<svg width="319" height="154" viewBox="0 0 319 154" fill="none" xmlns="http://www.w3.org/2000/svg">
<g clip-path="url(#clip0_179_39655)">
<path d="M301.946 35.6366C290.949 24.5882 276.328 18.5035 260.774 18.5035H126.484C112.609 6.56031 94.9734 0 76.6444 0C66.2986 0 56.2621 2.03685 46.8093 6.05168C37.6823 9.92994 29.4858 15.4824 22.4472 22.5513C15.4086 29.6203 9.88408 37.8548 6.02373 47.0242C2.02744 56.5208 0 66.6062 0 76.9976C0 90.0429 3.30016 102.895 9.54891 114.243V143.378H37.7808C49.5235 150.331 62.9351 154 76.6444 154C94.9711 154 112.606 147.44 126.482 135.496H260.774C276.328 135.496 290.949 129.412 301.946 118.363C312.943 107.315 319 92.6261 319 77C319 61.3739 312.943 46.6851 301.946 35.6366ZM310.993 77C310.993 104.819 288.464 127.453 260.774 127.453H134.554C139.343 121.921 143.299 115.752 146.367 109.022C150.961 98.9438 153.291 88.1685 153.291 76.9976C153.291 65.8268 150.961 55.0538 146.367 44.9755C143.299 38.2457 139.343 32.0763 134.554 26.545H260.774C288.464 26.545 310.993 49.1787 310.993 76.9976V77ZM123.011 127.836C122.779 128.051 122.551 128.265 122.317 128.475C109.74 139.747 93.5202 145.956 76.6444 145.956C64.025 145.956 51.6892 142.485 40.9731 135.923L40.0145 135.334H17.5555V112.121L17.0258 111.193C11.124 100.832 8.0043 89.0092 8.0043 77C8.00664 38.9757 38.798 8.04379 76.6444 8.04379C93.5202 8.04379 109.74 14.2532 122.317 25.5254C122.551 25.735 122.779 25.9516 123.011 26.1635C124.405 27.4468 125.739 28.782 127.014 30.1666C128.423 31.6972 129.759 33.2819 131.017 34.9231C140.189 46.8946 145.284 61.6801 145.284 76.9976C145.284 92.3152 140.189 107.103 131.017 119.074C129.761 120.716 128.423 122.3 127.014 123.831C125.739 125.216 124.405 126.551 123.011 127.834V127.836Z" fill="#FFD481"/>
<path d="M131.017 34.9232C129.76 33.2819 128.422 31.6972 127.013 30.1666C125.738 28.782 124.405 27.4469 123.01 26.1635C122.778 25.9516 122.551 25.735 122.316 25.5254C109.739 14.2509 93.5194 8.04382 76.6436 8.04382C38.7972 8.04382 8.00586 38.9757 8.00586 76.9977C8.00586 89.0068 11.1255 100.83 17.0274 111.191L17.5571 112.119V135.332H40.016L40.9747 135.92C51.6908 142.485 64.0266 145.954 76.6459 145.954C93.5218 145.954 109.741 139.744 122.318 128.472C122.553 128.263 122.783 128.046 123.012 127.834C124.407 126.551 125.741 125.216 127.016 123.831C128.424 122.301 129.76 120.716 131.019 119.075C140.19 107.103 145.286 92.3176 145.286 76.9977C145.286 61.6777 140.19 46.8947 131.019 34.9232H131.017ZM100.996 94.192C102.672 95.8756 102.672 98.6071 100.996 100.291L99.8291 101.463C98.1532 103.147 95.4343 103.147 93.7585 101.463L76.6459 84.2715L59.5334 101.463C57.8575 103.147 55.1386 103.147 53.4628 101.463L52.2955 100.291C50.6197 98.6071 50.6197 95.8756 52.2955 94.192L69.4081 77L52.2955 59.8081C50.6197 58.1244 50.6197 55.3929 52.2955 53.7093L53.4628 52.5366C55.1386 50.853 57.8575 50.853 59.5334 52.5366L76.6459 69.7286L93.7585 52.5366C95.4343 50.853 98.1532 50.853 99.8291 52.5366L100.996 53.7093C102.672 55.3929 102.672 58.1244 100.996 59.8081L83.8838 77L100.996 94.192Z" fill="#FBC04E"/>
<path d="M193.313 52.2611L192.786 53.1795L184.395 66.5638H193.313V52.2611Z" fill="#FBC04E"/>
<path d="M222.77 94.75H219.17V101.31H222.787C223.912 101.31 224.783 101.023 225.402 100.446C226.021 99.8716 226.328 99.078 226.328 98.0678C226.328 97.0576 226.037 96.2264 225.454 95.6354C224.87 95.0443 223.977 94.75 222.772 94.75H222.77Z" fill="#FBC04E"/>
<path d="M243.586 94.524C242.081 94.524 240.921 95.1127 240.105 96.2877C239.287 97.4628 238.875 99.1864 238.865 101.459V102.525C238.865 104.758 239.273 106.488 240.091 107.72C240.907 108.952 242.083 109.566 243.616 109.566C245.149 109.566 246.277 108.973 247.083 107.788C247.889 106.602 248.297 104.873 248.309 102.603V101.536C248.309 99.2453 247.901 97.5028 247.083 96.3136C246.265 95.1221 245.1 94.5264 243.586 94.5264V94.524Z" fill="#FBC04E"/>
<path d="M225.146 75.8862C227.103 75.8862 228.516 75.1162 229.383 73.5762C230.251 72.0362 230.703 69.6791 230.74 66.5073V56.8788C230.74 53.5209 230.283 51.0767 229.369 49.5461C228.455 48.0155 227.028 47.2502 225.089 47.2502C223.151 47.2502 221.815 47.9779 220.92 49.4354C220.024 50.893 219.548 53.1701 219.492 56.2665V66.1164C219.492 69.4178 219.94 71.8714 220.835 73.4773C221.731 75.0833 223.167 75.8839 225.143 75.8839L225.146 75.8862Z" fill="#FBC04E"/>
<path d="M202.477 94.75H198.877V101.31H202.494C203.619 101.31 204.491 101.023 205.109 100.446C205.726 99.8716 206.035 99.078 206.035 98.0678C206.035 97.0576 205.744 96.2264 205.161 95.6354C204.577 95.0443 203.684 94.75 202.479 94.75H202.477Z" fill="#FBC04E"/>
<path d="M252.322 66.5638H261.243V52.2611L260.716 53.1795L252.322 66.5638Z" fill="#FBC04E"/>
<path d="M260.774 26.5474H134.555C139.343 32.0786 143.3 38.2481 146.368 44.9779C150.962 55.0562 153.292 65.8291 153.292 77C153.292 88.1709 150.962 98.9462 146.368 109.024C143.3 115.754 139.343 121.924 134.555 127.455H260.774C288.465 127.455 310.994 104.821 310.994 77.0024C310.994 49.1835 288.465 26.5497 260.774 26.5497V26.5474ZM191 112.959H176.416V91.1026H190.969V94.7501H180.898V99.9587H189.504V103.486H180.898V109.34H190.997V112.957L191 112.959ZM176.777 73.0488L176.416 67.9837L193.229 41.2975H201.317V66.5638H205.888V73.0488H201.317V81.8155H193.313V73.0488H176.777ZM211.337 112.959H206.525L202.447 104.958H198.875V112.959H194.394V91.1026H202.478C205.046 91.1026 207.029 91.6771 208.424 92.8286C209.819 93.98 210.515 95.6048 210.515 97.7076C210.515 99.1982 210.194 100.441 209.551 101.438C208.909 102.434 207.934 103.227 206.631 103.816L211.337 112.747V112.957V112.959ZM211.49 58.0232C211.49 52.3647 212.657 48.0697 214.994 45.138C217.331 42.2064 220.694 40.7417 225.091 40.7417C229.488 40.7417 232.847 42.1946 235.174 45.0956C237.502 47.999 238.693 52.1693 238.747 57.604V65.0615C238.747 70.6634 237.591 74.949 235.285 77.9184C232.976 80.8877 229.596 82.3712 225.147 82.3712C220.699 82.3712 217.392 80.916 215.064 78.0031C212.737 75.0903 211.546 70.9177 211.492 65.4806V58.0232H211.49ZM231.633 112.959H226.821L222.743 104.958H219.171V112.959H214.689V91.1026H222.773C225.342 91.1026 227.325 91.6771 228.719 92.8286C230.114 93.98 230.81 95.6048 230.81 97.7076C230.81 99.1982 230.489 100.441 229.847 101.438C229.205 102.434 228.23 103.227 226.926 103.816L231.633 112.747V112.957V112.959ZM252.852 102.528C252.852 104.68 252.472 106.566 251.717 108.186C250.96 109.806 249.878 111.059 248.469 111.94C247.06 112.82 245.443 113.261 243.619 113.261C241.796 113.261 240.207 112.825 238.793 111.954C237.378 111.083 236.283 109.839 235.507 108.224C234.729 106.609 234.338 104.748 234.326 102.648V101.567C234.326 99.4148 234.713 97.5216 235.484 95.885C236.255 94.2485 237.347 92.9934 238.756 92.1175C240.165 91.2415 241.777 90.8035 243.589 90.8035C245.401 90.8035 247.013 91.2415 248.422 92.1175C249.831 92.9934 250.923 94.2485 251.694 95.885C252.465 97.5216 252.852 99.4101 252.852 101.551V102.525V102.528ZM273.818 112.959H269.006L264.927 104.958H261.355V112.959H256.874V91.1026H264.958C267.527 91.1026 269.51 91.6771 270.904 92.8286C272.299 93.98 272.995 95.6048 272.995 97.7076C272.995 99.1982 272.674 100.441 272.032 101.438C271.39 102.434 270.414 103.227 269.111 103.816L273.818 112.747V112.957V112.959ZM273.818 73.0488H269.247V81.8155H261.243V73.0488H244.707L244.346 67.9837L261.159 41.2975H269.247V66.5638H273.818V73.0488Z" fill="#FBC04E"/>
<path d="M264.958 94.75H261.357V101.31H264.974C266.099 101.31 266.971 101.023 267.59 100.446C268.206 99.8716 268.516 99.078 268.516 98.0678C268.516 97.0576 268.225 96.2264 267.641 95.6354C267.058 95.0443 266.165 94.75 264.96 94.75H264.958Z" fill="#FBC04E"/>
</g>
<defs>
<clipPath id="clip0_179_39655">
<rect width="319" height="154" fill="white"/>
</clipPath>
</defs>
</svg>
