<svg width="108" height="36" viewBox="0 0 108 36" fill="none" xmlns="http://www.w3.org/2000/svg">
<path d="M26.7929 19.5352C25.5051 24.7008 20.2732 27.8445 15.107 26.5563C9.94289 25.2684 6.79917 20.0363 8.08764 14.871C9.37489 9.70476 14.6068 6.56075 19.7715 7.84861C24.9374 9.13646 28.0808 14.3693 26.7929 19.5352Z" fill="#F7931A"/>
<path d="M21.69 15.8289C21.882 14.5458 20.9051 13.8561 19.5693 13.396L20.0026 11.6579L18.9447 11.3943L18.5228 13.0865C18.2447 13.0172 17.959 12.9518 17.6752 12.887L18.1 11.1837L17.0427 10.92L16.6091 12.6574C16.3789 12.605 16.1529 12.5532 15.9335 12.4986L15.9347 12.4932L14.4757 12.1289L14.1943 13.2589C14.1943 13.2589 14.9792 13.4388 14.9627 13.4499C15.3911 13.5569 15.4686 13.8404 15.4556 14.0652L14.9621 16.0452C14.9916 16.0528 15.0299 16.0636 15.072 16.0805C15.0368 16.0717 14.9991 16.0621 14.9602 16.0528L14.2684 18.8264C14.216 18.9566 14.0831 19.1519 13.7836 19.0777C13.7941 19.0931 13.0146 18.8858 13.0146 18.8858L12.4894 20.0968L13.8661 20.44C14.1223 20.5042 14.3733 20.5714 14.6203 20.6347L14.1825 22.3926L15.2393 22.6563L15.6729 20.917C15.9615 20.9954 16.2418 21.0677 16.516 21.1358L16.0839 22.8669L17.1418 23.1306L17.5797 21.3759C19.3837 21.7173 20.7402 21.5796 21.3113 19.948C21.7714 18.6342 21.2884 17.8764 20.3392 17.3822C21.0304 17.2228 21.5511 16.7681 21.69 15.8289ZM19.2728 19.2185C18.9459 20.5322 16.7338 19.822 16.0167 19.6439L16.5976 17.315C17.3148 17.494 19.6145 17.8483 19.2728 19.2185ZM19.6 15.8099C19.3017 17.0049 17.4606 16.3978 16.8634 16.2489L17.3901 14.1366C17.9873 14.2855 19.9107 14.5633 19.6 15.8099Z" fill="white"/>
<path d="M36.0545 13.3954C36.8364 13.3954 37.512 13.5355 38.0797 13.8106C38.6501 14.0884 39.1207 14.4627 39.4983 14.9333C39.8707 15.4064 40.148 15.9593 40.3269 16.593C40.5047 17.2285 40.5939 17.9116 40.5939 18.6429C40.5939 19.7663 40.3881 20.8275 39.9726 21.8279C39.5571 22.8298 38.9933 23.6989 38.2761 24.4401C37.5596 25.1805 36.7135 25.7641 35.7378 26.1953C34.7636 26.6268 33.7044 26.8426 32.5672 26.8426C32.4202 26.8426 32.1616 26.8383 31.7964 26.8308C31.4312 26.8233 31.0115 26.7856 30.5414 26.722C30.0683 26.656 29.5681 26.5584 29.0399 26.4276C28.512 26.2993 28.0106 26.1194 27.5384 25.891L31.7606 8.15023L35.5422 7.56416L34.0305 13.8597C34.3541 13.7139 34.6801 13.6009 35.0055 13.5186C35.3313 13.4376 35.6808 13.3954 36.0545 13.3954ZM32.8824 23.8426C33.4519 23.8426 33.9886 23.7025 34.4927 23.4274C34.9983 23.1519 35.4346 22.7801 35.8001 22.317C36.1656 21.8517 36.4549 21.3277 36.6658 20.7423C36.8768 20.1568 36.9834 19.546 36.9834 18.9105C36.9834 18.1298 36.853 17.5208 36.5929 17.0806C36.3329 16.6421 35.8517 16.4216 35.1529 16.4216C34.9239 16.4216 34.6289 16.4653 34.2631 16.5433C33.8961 16.6262 33.5676 16.7982 33.2732 17.0571L31.6636 23.7428C31.7606 23.76 31.8465 23.7763 31.9197 23.7917C31.9914 23.8082 32.0706 23.82 32.1496 23.8281C32.2331 23.8375 32.3286 23.8423 32.444 23.8423C32.5594 23.8423 32.7037 23.8426 32.8824 23.8426Z" fill="white"/>
<path d="M44.5165 26.5015H40.9046L43.9549 13.666H47.5916L44.5165 26.5015ZM46.2742 12.1021C45.7701 12.1021 45.3129 11.952 44.9074 11.6513C44.4985 11.3524 44.296 10.8923 44.296 10.2722C44.296 9.93106 44.3653 9.61105 44.5027 9.30912C44.6422 9.0078 44.8245 8.74836 45.0529 8.52779C45.281 8.30903 45.5453 8.13426 45.8454 8.00258C46.1473 7.87301 46.4685 7.80823 46.8108 7.80823C47.3146 7.80823 47.7693 7.95829 48.1764 8.25901C48.582 8.56124 48.786 9.02136 48.786 9.63817C48.786 9.98047 48.717 10.3017 48.5784 10.603C48.4407 10.9043 48.2584 11.1638 48.03 11.3843C47.8037 11.6034 47.537 11.7776 47.2375 11.908C46.9353 12.0397 46.6153 12.1021 46.2742 12.1021Z" fill="white"/>
<path d="M50.7564 10.4686L54.5395 9.88254L53.6105 13.666H57.6621L56.9305 16.6424H52.9033L51.8306 21.1322C51.7318 21.5064 51.6757 21.856 51.66 22.1808C51.6423 22.5071 51.6836 22.7873 51.7812 23.0233C51.8782 23.2598 52.0527 23.4421 52.3058 23.5711C52.5577 23.7022 52.9184 23.7682 53.3915 23.7682C53.7811 23.7682 54.1607 23.7311 54.5278 23.6576C54.8927 23.5853 55.2624 23.4846 55.6366 23.3529L55.906 26.136C55.4179 26.3149 54.8893 26.4689 54.3198 26.5985C53.7494 26.7299 53.0742 26.7931 52.2937 26.7931C51.1716 26.7931 50.3017 26.6265 49.6819 26.2948C49.0629 25.9606 48.6254 25.5041 48.3636 24.9261C48.1053 24.3503 47.9899 23.6865 48.0222 22.9386C48.0556 22.1889 48.1686 21.401 48.3636 20.5711L50.7564 10.4686Z" fill="white"/>
<path d="M57.5027 21.3774C57.5027 20.2719 57.6817 19.2293 58.0394 18.2533C58.3964 17.2764 58.9108 16.4222 59.5782 15.6891C60.2433 14.9595 61.0535 14.3816 62.0072 13.9573C62.9564 13.5355 64.0192 13.3228 65.1904 13.3228C65.9235 13.3228 66.5783 13.3921 67.1544 13.531C67.733 13.6711 68.2564 13.8522 68.7298 14.0794L67.4841 16.9118C67.1587 16.7798 66.8209 16.6635 66.4716 16.5581C66.1221 16.4505 65.6954 16.3987 65.1907 16.3987C63.9851 16.3987 63.032 16.8142 62.3227 17.6425C61.6161 18.4715 61.2602 19.5873 61.2602 20.9869C61.2602 21.8165 61.4392 22.4872 61.7984 23.0004C62.1558 23.5135 62.816 23.7688 63.7745 23.7688C64.2476 23.7688 64.7041 23.7193 65.1413 23.6229C65.5818 23.5253 65.9708 23.4023 66.3134 23.2571L66.5831 26.1607C66.1263 26.3378 65.6225 26.4978 65.0699 26.638C64.516 26.7733 63.8567 26.8435 63.0923 26.8435C62.0832 26.8435 61.2289 26.6958 60.5301 26.405C59.8311 26.1097 59.2534 25.7177 58.7984 25.2211C58.341 24.7234 58.0126 24.1421 57.8095 23.475C57.6064 22.8084 57.5027 22.1082 57.5027 21.3774Z" fill="white"/>
<path d="M73.5476 26.8429C72.6855 26.8429 71.9368 26.7115 71.3016 26.4514C70.6682 26.1914 70.1436 25.8265 69.7287 25.3534C69.3131 24.8828 69.0022 24.325 68.7891 23.6823C68.5761 23.0399 68.4736 22.3284 68.4736 21.5489C68.4736 20.5711 68.6306 19.5936 68.9479 18.6188C69.2637 17.6419 69.7323 16.7642 70.3524 15.9841C70.9677 15.2027 71.7267 14.5639 72.6205 14.0658C73.5133 13.571 74.5402 13.3222 75.6937 13.3222C76.5401 13.3222 77.285 13.4538 77.9289 13.7139C78.5698 13.9733 79.0977 14.3412 79.5151 14.8119C79.9279 15.285 80.2416 15.8403 80.4525 16.4839C80.6649 17.1252 80.7698 17.8384 80.7698 18.6185C80.7698 19.5933 80.6149 20.5708 80.3075 21.5486C79.9999 22.5216 79.5434 23.4014 78.9408 24.1834C78.3393 24.9635 77.5872 25.602 76.6838 26.098C75.7817 26.594 74.7355 26.8429 73.5476 26.8429ZM75.3529 16.3984C74.8174 16.3984 74.344 16.5539 73.9388 16.8609C73.532 17.1716 73.1903 17.5621 72.9149 18.0331C72.6364 18.5061 72.43 19.022 72.2905 19.5828C72.1522 20.1447 72.0844 20.676 72.0844 21.1807C72.0844 21.9952 72.2158 22.6295 72.474 23.086C72.7359 23.5401 73.2062 23.7685 73.8899 23.7685C74.4272 23.7685 74.8982 23.6142 75.3059 23.3038C75.7102 22.9956 76.0523 22.6047 76.3298 22.1329C76.6064 21.6622 76.8146 21.1448 76.9541 20.5832C77.0906 20.023 77.1602 19.4888 77.1602 18.9849C77.1602 18.1726 77.0295 17.5368 76.7688 17.0809C76.5085 16.6268 76.036 16.3984 75.3529 16.3984Z" fill="white"/>
<path d="M84.7069 26.5015H81.0919L84.1422 13.666H87.7807L84.7069 26.5015ZM86.4618 12.1021C85.958 12.1021 85.5012 11.952 85.0962 11.6513C84.6894 11.3524 84.4851 10.8923 84.4851 10.2722C84.4851 9.93106 84.5553 9.61105 84.693 9.30912C84.8307 9.0078 85.0143 8.74836 85.2427 8.52779C85.4696 8.30903 85.7362 8.13426 86.0357 8.00258C86.3359 7.87301 86.6571 7.80823 86.9982 7.80823C87.5032 7.80823 87.9594 7.95829 88.3656 8.25901C88.7721 8.56124 88.9773 9.02136 88.9773 9.63817C88.9773 9.98047 88.9043 10.3017 88.7678 10.603C88.6313 10.9043 88.4478 11.1638 88.2203 11.3843C87.9913 11.6034 87.728 11.7776 87.4279 11.908C87.1253 12.0397 86.8047 12.1021 86.4618 12.1021Z" fill="white"/>
<path d="M90.3823 14.2508C90.6565 14.1707 90.9627 14.0743 91.2957 13.9694C91.6298 13.8645 92.0032 13.7669 92.4202 13.6789C92.8327 13.5882 93.2983 13.5147 93.8102 13.4578C94.3222 13.3996 94.9055 13.3713 95.5537 13.3713C97.4587 13.3713 98.7718 13.926 99.4968 15.0322C100.221 16.1383 100.347 17.6522 99.8765 19.571L98.215 26.5015H94.5792L96.1895 19.7169C96.2877 19.2932 96.3648 18.8837 96.4218 18.4835C96.4793 18.087 96.476 17.7375 96.4088 17.4349C96.3446 17.136 96.1934 16.8913 95.9587 16.7018C95.7203 16.5153 95.3602 16.4216 94.8718 16.4216C94.4008 16.4216 93.9217 16.4722 93.4326 16.5698L91.0651 26.5012H87.4279L90.3823 14.2508Z" fill="white"/>
</svg>
