<svg width="106" height="34" viewBox="0 0 106 34" fill="none" xmlns="http://www.w3.org/2000/svg">
<path d="M14.8751 20.9293C14.8082 20.9511 14.7701 20.8954 14.7246 20.8698C12.4951 19.6099 10.268 18.3492 8.04345 17.0877C8.02191 17.0772 7.99954 17.0685 7.97656 17.0614V17.0332L8.01603 17.0114C8.07206 16.9974 8.12722 16.9803 8.18123 16.9602L13.435 14.6715C13.9032 14.4672 14.3714 14.2661 14.8396 14.0637H14.8731C14.8731 14.1278 14.8731 14.1848 14.8731 14.2456C14.8749 16.4737 14.8755 18.7016 14.8751 20.9293Z" fill="#343535"/>
<path d="M14.8784 14.0653H14.845C14.845 14.0013 14.8516 13.9372 14.8516 13.87C14.8516 11.3674 14.8516 8.86451 14.8516 6.36145C14.844 6.29716 14.8485 6.23207 14.865 6.16933H14.8791C15.154 6.55805 15.3934 6.96789 15.6462 7.36942C17.6492 10.5504 19.6511 13.731 21.6518 16.9112C21.6712 16.9426 21.6866 16.9752 21.704 17.0098C21.6474 16.9982 21.5917 16.9826 21.5375 16.9631C21.1703 16.8042 20.8017 16.6429 20.4379 16.4808C19.868 16.2311 19.2979 15.9818 18.7276 15.7329L15.98 14.5411C15.6141 14.3797 15.2463 14.2228 14.8784 14.0653Z" fill="#AEAEAE"/>
<path d="M14.8672 6.16602C14.8507 6.22876 14.8462 6.29385 14.8538 6.35814C14.8538 8.86077 14.8538 11.3636 14.8538 13.8667C14.8538 13.9307 14.8498 13.9948 14.8472 14.062C14.379 14.2644 13.9108 14.4654 13.4426 14.6697L8.18876 16.9585C8.13475 16.9785 8.07959 16.9956 8.02356 17.0097C8.17538 16.7074 8.3727 16.4333 8.55262 16.1439C10.6372 12.8263 12.7233 9.50927 14.811 6.19292C14.8248 6.17455 14.8398 6.15701 14.8559 6.14041L14.8672 6.16602Z" fill="#828384"/>
<path d="M14.8784 14.0653C15.2463 14.2228 15.6142 14.3798 15.9814 14.5386L18.7291 15.7304C19.2998 15.9788 19.8699 16.2282 20.4393 16.4783C20.8059 16.6391 21.1751 16.8017 21.5389 16.9605C21.5931 16.9801 21.6488 16.9957 21.7055 17.0073C21.7723 17.0873 21.6734 17.0905 21.6433 17.1078C21.0727 17.4344 20.4995 17.7565 19.9277 18.0806C18.2863 19.0104 16.6454 19.9401 15.0049 20.8695C14.9635 20.8925 14.9186 20.9095 14.8751 20.9293C14.8751 18.7021 14.8752 16.4749 14.8752 14.2472C14.8758 14.1864 14.8777 14.1261 14.8784 14.0653Z" fill="#645959"/>
<path d="M14.8516 22.1945L19.1489 19.7694C19.9694 19.3057 20.7894 18.8417 21.609 18.3772L21.6832 18.3381C21.6906 18.4022 21.6444 18.4361 21.6163 18.4732C19.7435 21.0011 17.8708 23.528 15.998 26.0541C15.6435 26.5331 15.2897 27.0147 14.9318 27.4899C14.9131 27.5149 14.8843 27.6321 14.8268 27.5078C14.8723 27.4707 14.8522 27.4207 14.8522 27.3797C14.8527 25.6507 14.8525 23.9223 14.8516 22.1945Z" fill="#AEAEAE"/>
<path d="M14.8516 22.1945C14.8516 23.9223 14.8512 25.65 14.8512 27.3769C14.8512 27.4211 14.8713 27.471 14.8258 27.5049C14.7301 27.4499 14.6887 27.3512 14.6251 27.2699C12.4536 24.3412 10.2832 21.4121 8.11389 18.4825C8.08646 18.4454 8.06105 18.4057 8.03295 18.3647C8.08914 18.3333 8.11924 18.3762 8.15201 18.3948C10.3481 19.6363 12.5437 20.8789 14.7388 22.1225C14.7796 22.1468 14.8148 22.1715 14.8516 22.1945Z" fill="#828384"/>
<path d="M14.8672 6.16602L14.8517 6.14229C14.8811 6.12436 14.8771 6.15062 14.8818 6.16407L14.8672 6.16602Z" fill="#393939"/>
<path d="M48.8759 18.107V21.4565C48.8738 21.5252 48.8444 21.5905 48.7937 21.6391C48.7429 21.6876 48.6747 21.7158 48.603 21.7178C48.5669 21.7188 48.5309 21.7127 48.4973 21.6999C48.4637 21.6871 48.4332 21.6679 48.4077 21.6435C48.3821 21.619 48.3621 21.5898 48.3487 21.5576C48.3354 21.5255 48.329 21.4911 48.33 21.4565V18.107C48.33 16.9746 47.6601 15.8502 46.3451 15.8502C44.658 15.8502 43.9302 17.2597 44.0294 18.7088C44.0294 18.731 44.0346 18.7933 44.0392 18.8478C44.0428 18.8901 44.046 18.928 44.046 18.9384V21.4486C44.0458 21.5155 44.0208 21.5801 43.9753 21.6309C43.9298 21.6818 43.8669 21.7154 43.7978 21.7257C43.7593 21.7306 43.72 21.7275 43.6828 21.7166C43.6456 21.7056 43.6113 21.6871 43.5822 21.6623C43.5532 21.6375 43.5301 21.6069 43.5145 21.5728C43.4989 21.5386 43.4911 21.5017 43.4918 21.4644V10.4498C43.4925 10.3807 43.5215 10.3146 43.5725 10.2657C43.6235 10.2168 43.6926 10.1891 43.7648 10.1885C43.8365 10.1905 43.9047 10.2186 43.9555 10.2672C44.0062 10.3158 44.0356 10.3811 44.0377 10.4498V16.6737C44.5091 15.866 45.3527 15.3197 46.3369 15.3197C47.9579 15.3197 48.8759 16.6737 48.8759 18.107Z" fill="white"/>
<path d="M40.0931 15.5093C40.0424 15.4607 39.9742 15.4325 39.9024 15.4305H38.4386V13.3955C38.4393 13.3582 38.4316 13.3213 38.416 13.2871C38.4004 13.253 38.3772 13.2224 38.3482 13.1976C38.3191 13.1728 38.2848 13.1543 38.2476 13.1433C38.2104 13.1324 38.1712 13.1293 38.1326 13.1342C38.0635 13.1445 38.0006 13.1782 37.9551 13.229C37.9097 13.2798 37.8846 13.3444 37.8845 13.4113V15.4305H36.4702C36.398 15.4312 36.329 15.4589 36.2779 15.5078C36.2269 15.5566 36.1979 15.6227 36.1973 15.6919C36.1963 15.7264 36.2026 15.7609 36.216 15.793C36.2293 15.8252 36.2494 15.8544 36.2749 15.8788C36.3005 15.9033 36.331 15.9225 36.3646 15.9353C36.3981 15.9481 36.4341 15.9541 36.4702 15.9532H37.8845V21.4882C37.8865 21.5569 37.916 21.6222 37.9667 21.6708C38.0174 21.7193 38.0857 21.7475 38.1574 21.7495C38.2296 21.7489 38.2986 21.7212 38.3497 21.6723C38.4007 21.6234 38.4297 21.5573 38.4303 21.4882V15.9532H39.9024C39.9386 15.9541 39.9745 15.9481 40.0081 15.9353C40.0417 15.9225 40.0722 15.9033 40.0977 15.8788C40.1233 15.8544 40.1433 15.8252 40.1567 15.793C40.17 15.7609 40.1764 15.7264 40.1754 15.6919C40.1733 15.6232 40.1439 15.5579 40.0931 15.5093Z" fill="white"/>
<path fill-rule="evenodd" clip-rule="evenodd" d="M33.1473 18.7557C33.2031 18.7038 33.2352 18.6328 33.2365 18.5584C33.2282 16.8717 31.9049 15.3039 30.0523 15.3039C28.1998 15.3039 26.8848 16.8875 26.8848 18.5742C26.8848 20.2608 28.208 21.8445 30.0523 21.8445C31.1275 21.8445 32.2275 21.3932 32.7816 20.4746C32.8088 20.4346 32.8231 20.3878 32.8229 20.34C32.824 20.3054 32.8176 20.271 32.8043 20.2389C32.7909 20.2067 32.7708 20.1775 32.7453 20.153C32.7197 20.1286 32.6892 20.1094 32.6557 20.0966C32.6221 20.0838 32.5861 20.0777 32.55 20.0787C32.5016 20.0806 32.4544 20.0939 32.4126 20.1174C32.3707 20.1409 32.3356 20.1738 32.3102 20.2133C31.7643 20.9656 31.0365 21.3219 30.0523 21.3219C28.6133 21.3219 27.596 20.1341 27.4554 18.8355H32.9387C33.0165 18.8363 33.0915 18.8077 33.1473 18.7557ZM30.0523 15.8265C31.4914 15.8265 32.5335 17.0142 32.6493 18.3129H27.4554C27.596 17.0142 28.6133 15.8265 30.0523 15.8265Z" fill="white"/>
<path fill-rule="evenodd" clip-rule="evenodd" d="M58.6368 18.7557C58.6926 18.7038 58.7246 18.6328 58.7259 18.5584C58.7177 16.8717 57.3778 15.3039 55.5418 15.3039C53.6892 15.3039 52.3742 16.8875 52.3742 18.5742C52.3742 20.2608 53.6975 21.8445 55.5418 21.8445C56.617 21.8445 57.7169 21.3932 58.2711 20.4746C58.2982 20.4346 58.3126 20.3878 58.3124 20.34C58.3134 20.3054 58.3071 20.271 58.2937 20.2389C58.2804 20.2067 58.2603 20.1775 58.2348 20.153C58.2092 20.1286 58.1787 20.1094 58.1451 20.0966C58.1115 20.0838 58.0756 20.0777 58.0395 20.0787C57.991 20.0806 57.9438 20.0939 57.902 20.1174C57.8602 20.1409 57.8251 20.1738 57.7996 20.2133C57.2538 20.9656 56.526 21.3219 55.5418 21.3219C54.1028 21.3219 53.0855 20.1341 52.9449 18.8355H58.4282C58.506 18.8363 58.581 18.8077 58.6368 18.7557ZM55.5335 15.8265C56.9726 15.8265 58.0147 17.0142 58.1305 18.3129H52.9366C53.0772 17.0142 54.0945 15.8265 55.5335 15.8265Z" fill="white"/>
<path d="M65.4664 15.676C65.4716 15.7463 65.4476 15.8157 65.3995 15.8691C65.3515 15.9225 65.2834 15.9556 65.21 15.9611C63.5972 16.1907 62.8694 17.4497 62.8694 18.9147V21.4248C62.8693 21.4917 62.8442 21.5564 62.7988 21.6072C62.7533 21.658 62.6904 21.6916 62.6213 21.702C62.5827 21.7069 62.5435 21.7037 62.5063 21.6928C62.4691 21.6819 62.4348 21.6633 62.4057 21.6385C62.3767 21.6137 62.3535 21.5832 62.3379 21.549C62.3223 21.5149 62.3146 21.4779 62.3153 21.4407V15.7156C62.3154 15.6487 62.3405 15.584 62.386 15.5332C62.4315 15.4824 62.4944 15.4488 62.5634 15.4384C62.602 15.4335 62.6413 15.4367 62.6785 15.4476C62.7157 15.4586 62.75 15.4771 62.779 15.5019C62.8081 15.5267 62.8312 15.5572 62.8468 15.5914C62.8624 15.6255 62.8701 15.6625 62.8694 15.6998V16.8638C63.3243 16.1274 64.2258 15.4305 65.1686 15.4305C65.3092 15.4305 65.4664 15.5255 65.4664 15.676Z" fill="white"/>
<path fill-rule="evenodd" clip-rule="evenodd" d="M74.3919 18.7557C74.4477 18.7038 74.4798 18.6328 74.4811 18.5584C74.4728 16.8717 73.1496 15.3039 71.297 15.3039C69.4444 15.3039 68.1294 16.8875 68.1294 18.5742C68.1294 20.2608 69.4527 21.8445 71.297 21.8445C72.3721 21.8445 73.4721 21.3932 74.0262 20.4746C74.0534 20.4346 74.0678 20.3878 74.0676 20.34C74.0686 20.3054 74.0622 20.271 74.0489 20.2389C74.0355 20.2067 74.0155 20.1775 73.9899 20.153C73.9644 20.1286 73.9339 20.1094 73.9003 20.0966C73.8667 20.0838 73.8308 20.0777 73.7946 20.0787C73.7462 20.0806 73.699 20.0939 73.6572 20.1174C73.6154 20.1409 73.5802 20.1738 73.5548 20.2133C73.009 20.9656 72.2812 21.3219 71.297 21.3219C69.8579 21.3219 68.8407 20.1341 68.7001 18.8355H74.1834C74.2612 18.8363 74.3362 18.8077 74.3919 18.7557ZM71.297 15.8265C72.736 15.8265 73.7781 17.0142 73.8939 18.3129H68.7001C68.8407 17.0142 69.8579 15.8265 71.297 15.8265Z" fill="white"/>
<path d="M83.347 15.7393V21.4882C83.3449 21.5568 83.3155 21.6222 83.2648 21.6707C83.214 21.7193 83.1458 21.7475 83.0741 21.7495C83.038 21.7505 83.002 21.7444 82.9684 21.7316C82.9349 21.7188 82.9044 21.6996 82.8788 21.6751C82.8533 21.6507 82.8332 21.6215 82.8199 21.5893C82.8065 21.5572 82.8001 21.5227 82.8012 21.4882V20.3954C82.3463 21.2585 81.5441 21.8841 80.5185 21.8841C78.8893 21.8841 77.9878 20.53 77.9878 19.0968V15.7314C77.9884 15.6623 78.0174 15.5962 78.0684 15.5473C78.1195 15.4985 78.1885 15.4707 78.2607 15.4701C78.3324 15.4721 78.4006 15.5003 78.4514 15.5489C78.5021 15.5974 78.5316 15.6627 78.5336 15.7314V19.0968C78.5336 20.2291 79.2035 21.3535 80.5185 21.3535C82.3628 21.3535 82.8012 19.6986 82.8012 17.8694V15.7235C82.8018 15.6811 82.813 15.6395 82.8338 15.6022C82.8547 15.5648 82.8846 15.5328 82.921 15.5087C82.9575 15.4847 82.9994 15.4694 83.0433 15.464C83.0872 15.4587 83.1318 15.4635 83.1733 15.478C83.2253 15.5012 83.2693 15.5381 83.3001 15.5844C83.3309 15.6307 83.3471 15.6845 83.347 15.7393Z" fill="white"/>
<path d="M97.2331 21.4486V18.0832C97.2331 16.6579 96.3151 15.3197 94.7023 15.3197C93.5693 15.3197 92.6843 16.0086 92.2295 16.9905C91.8738 16.0006 91.0054 15.3197 89.8889 15.3197C88.9048 15.3197 88.0612 15.8502 87.5898 16.6579V15.6997C87.5905 15.6625 87.5827 15.6255 87.5671 15.5914C87.5515 15.5572 87.5284 15.5267 87.4994 15.5019C87.4703 15.4771 87.436 15.4586 87.3988 15.4476C87.3616 15.4367 87.3223 15.4335 87.2837 15.4384C87.2147 15.4488 87.1518 15.4824 87.1063 15.5332C87.0608 15.584 87.0358 15.6487 87.0356 15.7156V21.4565C87.0349 21.4938 87.0427 21.5307 87.0583 21.5649C87.0739 21.599 87.097 21.6295 87.126 21.6544C87.1551 21.6792 87.1894 21.6977 87.2266 21.7086C87.2638 21.7196 87.3031 21.7227 87.3416 21.7178C87.4107 21.7074 87.4736 21.6738 87.5191 21.623C87.5645 21.5722 87.5896 21.5076 87.5898 21.4407V18.9147C87.601 18.8985 87.5969 18.8603 87.5932 18.8251C87.5914 18.8086 87.5898 18.7927 87.5898 18.78C87.5319 17.1013 88.2183 15.8423 89.8889 15.8423C91.2039 15.8423 91.8738 16.9509 91.8738 18.0832V21.4486C91.8728 21.4832 91.8792 21.5176 91.8925 21.5497C91.9059 21.5819 91.9259 21.6111 91.9515 21.6355C91.977 21.66 92.0075 21.6792 92.0411 21.692C92.0747 21.7048 92.1106 21.7109 92.1468 21.7099C92.2185 21.7079 92.2867 21.6797 92.3374 21.6311C92.3882 21.5826 92.4176 21.5172 92.4197 21.4486V18.8513C92.4197 17.5368 93.0482 15.8423 94.7023 15.8423C96.0173 15.8423 96.6872 16.9509 96.6872 18.0832V21.4486C96.6862 21.4832 96.6926 21.5176 96.7059 21.5497C96.7193 21.5819 96.7393 21.6111 96.7649 21.6355C96.7904 21.66 96.8209 21.6792 96.8545 21.692C96.8881 21.7048 96.924 21.7109 96.9601 21.7099C97.0319 21.7079 97.1001 21.6797 97.1508 21.6311C97.2016 21.5826 97.231 21.5172 97.2331 21.4486Z" fill="white"/>
</svg>
