<svg width="150" height="58" viewBox="0 0 150 58" fill="none" xmlns="http://www.w3.org/2000/svg">
<rect x="0.863281" y="0.40625" width="148.432" height="56.9173" rx="15" fill="#242527"/>
<path d="M40.7681 16.9609C33.9681 16.9609 28.4531 22.2117 28.4531 28.687C28.4531 29.9816 28.6734 31.2266 29.0805 32.3912H32.7634V22.525L40.7681 30.1471L48.7729 22.525V32.3912H52.4561C52.8632 31.2266 53.0835 29.9816 53.0835 28.687C53.0835 22.2117 47.5685 16.9609 40.7681 16.9609Z" fill="#FF6600"/>
<path d="M35.4341 28.5729V34.781H30.2449C32.4067 38.1582 36.3111 40.4137 40.7678 40.4137C45.2246 40.4137 49.1294 38.1582 51.2908 34.781H46.1019V28.5729L40.7678 33.652L35.4341 28.5729Z" fill="white"/>
<path d="M60.2616 24.5044H58.251L56.3879 34.7812H58.3912L59.5732 28.2909L61.8391 34.7812H63.6498L65.9461 28.2909L67.1054 34.7812H69.0864L67.2679 24.5044H65.2874L62.7555 31.6722L60.2616 24.5044Z" fill="white"/>
<path fill-rule="evenodd" clip-rule="evenodd" d="M78.9608 26.008C77.9157 25.0068 76.6659 24.5047 75.2106 24.5047C74.2515 24.5047 73.3548 24.7344 72.5249 25.193C71.6919 25.6518 71.0382 26.274 70.5636 27.0602C70.0888 27.846 69.8505 28.7071 69.8505 29.6426C69.8505 31.0398 70.3607 32.2457 71.3822 33.2616C72.4027 34.2791 73.6842 34.7856 75.2246 34.7856C76.6966 34.7856 77.9494 34.2927 78.9822 33.3023C80.015 32.314 80.5303 31.1037 80.5303 29.6747C80.5303 28.2343 80.0077 27.0125 78.9608 26.008ZM77.5936 32.0255C76.9426 32.6639 76.153 32.982 75.2246 32.982C74.4043 32.982 73.6792 32.7367 73.0444 32.2435C72.2285 31.6146 71.8211 30.7583 71.8211 29.6747C71.8211 28.7046 72.1454 27.9029 72.7942 27.2737C73.4406 26.6423 74.2395 26.3287 75.1916 26.3287C76.1316 26.3287 76.9309 26.6515 77.5866 27.2962C78.245 27.9413 78.5741 28.73 78.5741 29.6633C78.5741 30.5991 78.2477 31.3849 77.5936 32.0255Z" fill="white"/>
<path d="M84.1103 24.5047H82.1444V34.7812H84.1978V28.0408L88.8203 34.7812H90.7936V24.5047H88.7403V31.2667L84.1103 24.5047Z" fill="white"/>
<path d="M92.9862 24.5047H99.9835V26.4192H95.0272V28.5225H99.9835V30.4037H95.0272V32.8593H99.9835V34.7815H92.9862V24.5047Z" fill="white"/>
<path fill-rule="evenodd" clip-rule="evenodd" d="M116.944 24.5047C118.4 24.5047 119.649 25.0068 120.695 26.008C121.741 27.0125 122.264 28.2343 122.264 29.6747C122.264 31.1037 121.749 32.314 120.716 33.3023C119.683 34.2927 118.43 34.7856 116.958 34.7856C115.418 34.7856 114.136 34.2791 113.116 33.2616C112.094 32.2457 111.584 31.0398 111.584 29.6426C111.584 28.7071 111.822 27.846 112.297 27.0602C112.772 26.274 113.426 25.6518 114.259 25.193C115.088 24.7344 115.985 24.5047 116.944 24.5047ZM116.958 32.982C117.887 32.982 118.676 32.6639 119.327 32.0255C119.981 31.3849 120.308 30.5991 120.308 29.6633C120.308 28.73 119.979 27.9413 119.32 27.2962C118.665 26.6515 117.865 26.3287 116.925 26.3287C115.973 26.3287 115.174 26.6423 114.528 27.2737C113.879 27.9029 113.555 28.7046 113.555 29.6747C113.555 30.7583 113.962 31.6146 114.778 32.2435C115.413 32.7367 116.138 32.982 116.958 32.982Z" fill="white"/>
<path fill-rule="evenodd" clip-rule="evenodd" d="M109.695 29.1851C109.354 29.6379 108.841 29.9811 108.157 30.2149L110.711 34.7834H108.465L106.036 30.432H104.244V34.7834H102.191V24.507H105.971C107.166 24.507 108.015 24.6093 108.521 24.812C109.026 25.0147 109.434 25.3509 109.742 25.8206C110.051 26.2902 110.203 26.8482 110.203 27.4898C110.203 28.1666 110.035 28.7297 109.695 29.1851ZM107.841 28.2824L107.847 28.2788C108.092 28.1167 108.215 27.8473 108.215 27.4704C108.215 27.2464 108.155 27.051 108.032 26.8864C107.909 26.7221 107.746 26.6026 107.541 26.5311L107.528 26.5263C107.332 26.4558 107.236 26.4215 106.746 26.4215H104.244V28.5244H106.826C107.477 28.5244 107.597 28.4446 107.841 28.2824Z" fill="white"/>
</svg>
