<svg width="91" height="20" viewBox="0 0 91 20" fill="none" xmlns="http://www.w3.org/2000/svg">
<path d="M12.7959 9.82822C15.6994 9.82822 18.1263 9.33518 18.7202 8.67678C18.2166 8.11841 16.3948 7.67901 14.0821 7.55836V8.94927C13.6675 8.9709 13.2373 8.9823 12.7959 8.9823C12.3547 8.9823 11.9243 8.9709 11.5098 8.94927V7.55836C9.19702 7.67901 7.37532 8.11841 6.87168 8.67678C7.4656 9.33518 9.89248 9.82822 12.7959 9.82822Z" fill="#009393"/>
<path fill-rule="evenodd" clip-rule="evenodd" d="M6.11267 0.230957H19.7118C20.0363 0.230957 20.3361 0.402884 20.4979 0.681807L24.4599 7.51071C24.6654 7.86484 24.6043 8.31184 24.3112 8.59902L13.4058 19.2853C13.0525 19.6315 12.4842 19.6315 12.1309 19.2853L1.2402 8.61342C0.940324 8.31958 0.88417 7.85957 1.10469 7.50326L5.33974 0.659899C5.50467 0.393382 5.79736 0.230957 6.11267 0.230957ZM17.9559 3.27982V5.1959H14.0821V6.52438C16.8028 6.66635 18.8441 7.24939 18.8593 7.94829L18.8591 9.40526C18.844 10.1042 16.8028 10.6872 14.0821 10.8292V14.0894H11.5098V10.8292C8.7891 10.6872 6.7478 10.1042 6.73266 9.40526L6.73274 7.94829C6.74788 7.24939 8.7891 6.66635 11.5098 6.52438V5.1959H7.63594V3.27982H17.9559Z" fill="#009393"/>
<path d="M29.7687 3.93671L32.9122 3.58606V6.61042H35.6411V9.2403H32.8904V13.3166C32.8904 14.2809 33.2979 14.763 34.1129 14.763C34.6368 14.763 35.0734 14.6754 35.4228 14.5L36.1432 17.1299C35.43 17.4075 34.6732 17.5683 33.8728 17.612C32.6066 17.6705 31.6024 17.371 30.8602 16.7135C30.1325 16.0414 29.7687 14.9091 29.7687 13.3166V9.2403H27.8475V6.61042H29.7687V3.93671Z" fill="#009393"/>
<path fill-rule="evenodd" clip-rule="evenodd" d="M39.482 12.9879H47.4065C47.7413 10.8401 47.3992 9.18181 46.3804 8.01297C45.3763 6.84415 43.9209 6.25973 42.0144 6.25973C40.2679 6.25973 38.878 6.7784 37.8447 7.81573C36.8114 8.8385 36.2948 10.1826 36.2948 11.8482C36.2948 13.6161 36.8186 15.0187 37.8666 16.056C38.9289 17.0934 40.4207 17.612 42.3418 17.612C44.3502 17.612 45.8929 17.0788 46.9699 16.0122L45.2016 14.0398C44.5467 14.6095 43.6153 14.8945 42.4073 14.8945C41.5632 14.8945 40.8865 14.7192 40.3771 14.3685C39.8677 14.0032 39.5693 13.543 39.482 12.9879ZM44.5903 10.6867H39.482C39.6421 10.1461 39.9477 9.72242 40.3989 9.41557C40.8501 9.10873 41.3885 8.95535 42.0144 8.95535C42.713 8.95535 43.3096 9.10873 43.8045 9.41557C44.2993 9.7078 44.5612 10.1315 44.5903 10.6867Z" fill="#009393"/>
<path d="M50.0273 3.93671L53.1709 3.58606V6.61042H55.8998V9.2403H53.1491V13.3166C53.1491 14.2809 53.5566 14.763 54.3716 14.763C54.8955 14.763 55.3321 14.6754 55.6815 14.5L56.4019 17.1299C55.6887 17.4075 54.9319 17.5683 54.1315 17.612C52.8653 17.6705 51.861 17.371 51.1189 16.7135C50.3912 16.0414 50.0273 14.9091 50.0273 13.3166V9.2403H48.1062V6.61042H50.0273V3.93671Z" fill="#009393"/>
<path d="M60.746 2.03002H57.5806V17.3709H60.7242V11.892C60.7242 11.0593 60.9498 10.4091 61.401 9.94157C61.8667 9.47404 62.4416 9.24027 63.1256 9.24027C63.7514 9.24027 64.2462 9.44481 64.6101 9.85388C64.9885 10.263 65.1777 10.8401 65.1777 11.5853V17.3709H68.3213V11.5633C68.3213 8.10066 66.8877 6.36931 64.0207 6.36931C62.6089 6.36931 61.5174 6.87337 60.746 7.88151V2.03002Z" fill="#009393"/>
<path fill-rule="evenodd" clip-rule="evenodd" d="M80.6501 12.9879H72.7259C72.8132 13.543 73.1116 14.0032 73.6206 14.3685C74.1301 14.7192 74.8071 14.8945 75.6515 14.8945C76.8591 14.8945 77.7909 14.6095 78.4453 14.0398L80.2141 16.0122C79.1368 17.0788 77.5943 17.612 75.586 17.612C73.6643 17.612 72.1729 17.0934 71.1104 16.056C70.0626 15.0187 69.5386 13.6161 69.5386 11.8482C69.5386 10.1826 70.0553 8.8385 71.0886 7.81573C72.1219 6.7784 73.5114 6.25973 75.2584 6.25973C77.1648 6.25973 78.62 6.84415 79.6245 8.01297C80.6428 9.18181 80.985 10.8401 80.6501 12.9879ZM72.7259 10.6867H77.8345C77.8054 10.1315 77.5434 9.7078 77.0484 9.41557C76.5534 9.10873 75.9565 8.95535 75.2584 8.95535C74.6324 8.95535 74.0938 9.10873 73.6424 9.41557C73.1916 9.72242 72.886 10.1461 72.7259 10.6867Z" fill="#009393"/>
<path d="M84.8792 6.56655H81.9537V17.3709H85.0976V11.7386C85.0976 10.9643 85.3378 10.3579 85.8182 9.91964C86.2986 9.46672 86.8948 9.24026 87.6082 9.24026C88.2487 9.24026 88.8231 9.42288 89.3326 9.78811L90.6429 7.28974C89.9004 6.63229 89.0196 6.30356 88.0012 6.30356C86.7638 6.30356 85.8036 6.78571 85.1194 7.74996L84.8792 6.56655Z" fill="#009393"/>
</svg>
