<svg width="102" height="23" viewBox="0 0 102 23" fill="none" xmlns="http://www.w3.org/2000/svg">
<path fill-rule="evenodd" clip-rule="evenodd" d="M0.806248 1.3414C3.32185 4.3975 6.08391 8.23691 6.53066 8.85791C6.55448 8.89102 6.57172 8.91498 6.58199 8.92918C6.82013 9.25866 7.01674 9.50358 7.16604 9.68958C7.49748 10.1025 7.59584 10.225 7.39808 10.3376C7.23855 10.4283 7.07398 10.4583 6.90977 10.4583C6.72404 10.4583 6.51479 10.3687 6.36242 10.2241C6.25473 10.1218 5.51781 9.05054 4.51435 7.49207C3.74657 6.29958 3.10403 5.31035 3.0865 5.29379C3.04598 5.25548 3.04667 5.25678 4.43607 7.74515C5.30849 9.30768 5.90527 10.4623 5.90527 10.5362C5.90527 10.6865 5.8643 10.7655 5.67911 10.9722C5.3704 11.317 5.23239 11.7044 5.13277 12.506C5.02109 13.4046 4.70704 14.0394 3.83673 15.1258C3.32728 15.7618 3.24392 15.8783 3.11537 16.1347C2.95346 16.4575 2.90893 16.6383 2.89089 17.0459C2.87181 17.4769 2.90896 17.7553 3.0405 18.1673C3.15567 18.528 3.27587 18.7663 3.58316 19.2427C3.84836 19.6538 4.00106 19.9593 4.00106 20.0788C4.00106 20.174 4.0192 20.1741 4.43015 20.0812C5.41359 19.8589 6.21213 19.468 6.66125 18.9889C6.93921 18.6923 7.00447 18.5285 7.00658 18.1222C7.00798 17.8563 6.99863 17.8007 6.92685 17.6478C6.81 17.3988 6.59727 17.192 6.12842 16.8711C5.51409 16.4507 5.2517 16.1124 5.17922 15.6469C5.11977 15.2651 5.18874 14.9956 5.52859 14.2827C5.88035 13.5447 5.96753 13.2302 6.02649 12.4863C6.06458 12.0057 6.11732 11.8162 6.25527 11.6641C6.39915 11.5055 6.52866 11.4517 6.88471 11.403C7.46519 11.3237 7.83482 11.1733 8.13864 10.8931C8.4022 10.65 8.5125 10.4157 8.52942 10.0631L8.54227 9.79582L8.39499 9.62393C7.8616 9.00143 0.449043 0.852051 0.416219 0.852051C0.409206 0.852051 0.584727 1.07227 0.806248 1.3414ZM4.30048 17.5336C4.42108 17.3197 4.35701 17.045 4.15527 16.9106C3.96467 16.7838 3.66859 16.8436 3.66859 17.0089C3.66859 17.0593 3.69645 17.096 3.75927 17.1284C3.86502 17.1829 3.8727 17.2441 3.78949 17.3693C3.70522 17.4961 3.71202 17.6076 3.80868 17.6833C3.96446 17.8054 4.18498 17.7382 4.30048 17.5336ZM7.93036 5.87573C7.6924 5.83879 7.68237 5.83445 7.79434 5.81723C8.00895 5.78419 8.51567 5.82921 8.86487 5.91233C9.68007 6.10628 10.4219 6.60315 11.2137 7.48561L11.424 7.72004L11.725 7.67162C12.9928 7.46768 14.2825 7.62975 15.3612 8.12855C15.658 8.26579 16.1258 8.53894 16.1843 8.60913C16.2028 8.63151 16.2371 8.77552 16.2602 8.92918C16.3404 9.4608 16.3003 9.86831 16.1378 10.1727C16.0495 10.3383 16.0445 10.3908 16.1039 10.5325C16.1513 10.6456 16.2836 10.7293 16.4146 10.7292C16.6827 10.7288 16.9712 10.295 17.1049 9.69151L17.158 9.45177L17.2632 9.57105C17.8402 10.2255 18.2935 11.1179 18.3713 11.7531L18.3916 11.9187L18.2946 11.7682C18.1276 11.5091 17.96 11.3327 17.7452 11.1905C17.3581 10.934 16.9486 10.8468 15.8645 10.7896C14.8853 10.738 14.3312 10.6542 13.7817 10.4749C12.8467 10.1698 12.3755 9.76341 11.2649 8.30496C10.7716 7.65716 10.4667 7.29874 10.1634 7.01011C9.4743 6.35427 8.79716 6.01032 7.93036 5.87573ZM16.4051 7.32211C16.4298 6.88803 16.4886 6.60171 16.6068 6.34024C16.6536 6.23674 16.6975 6.15202 16.7042 6.15202C16.711 6.15202 16.6907 6.22842 16.659 6.32177C16.5731 6.57554 16.5589 6.92263 16.6182 7.32645C16.6933 7.83883 16.7361 7.91277 17.2771 8.46625C17.5308 8.72586 17.826 9.05328 17.933 9.19385L18.1276 9.44945L17.933 9.26679C17.6951 9.04341 17.1479 8.60775 17.0271 8.54547C16.946 8.50371 16.9339 8.50443 16.884 8.55423C16.8379 8.60013 16.8282 8.66909 16.8218 8.9951C16.8118 9.50321 16.7427 9.82933 16.5757 10.1554C16.4854 10.3318 16.4711 10.2942 16.5528 10.0951C16.6139 9.94645 16.6201 9.8811 16.6196 9.38923C16.6187 8.40093 16.5014 8.16333 15.814 7.75632C15.6399 7.65322 15.3529 7.50452 15.1763 7.42585C14.9999 7.3472 14.8596 7.27869 14.8647 7.27358C14.8842 7.25418 15.5546 7.45004 15.8245 7.55393C16.2258 7.70847 16.292 7.7285 16.3408 7.70985C16.3734 7.69736 16.3893 7.60211 16.4051 7.32211ZM7.67532 6.56338C7.61061 7.3264 7.90951 8.34709 8.3926 9.01281C8.76709 9.52887 9.3476 9.92988 9.77617 9.96862C10.0568 9.99397 10.1411 9.90603 10.0142 9.72048C9.83791 9.46282 9.62114 9.06611 9.56376 8.89627C9.52814 8.79075 9.4507 8.47907 9.39167 8.20366C9.19016 7.26337 8.99208 6.89719 8.53456 6.61906C8.36784 6.51769 8.01179 6.38504 7.80529 6.34735L7.69533 6.32725L7.67532 6.56338ZM15.8192 13.9674C13.5615 13.0576 12.7664 12.2678 12.7664 10.9353C12.7664 10.7392 12.7732 10.5787 12.7814 10.5787C12.7897 10.5787 12.8769 10.6434 12.9754 10.7225C13.4332 11.0901 13.9459 11.2471 15.3652 11.4542C16.2002 11.5763 16.6702 11.6747 17.1038 11.8187C18.4817 12.2761 19.3343 13.2044 19.5376 14.4688C19.5966 14.8362 19.562 15.5251 19.4662 15.8882C19.3906 16.175 19.1598 16.6919 19.0986 16.7118C19.0816 16.7173 19.065 16.6522 19.0607 16.5636C19.0375 16.0889 18.7978 15.6267 18.3953 15.2804C17.9376 14.8867 17.3226 14.5734 15.8192 13.9674ZM14.1252 13.8673C14.1569 13.9618 14.206 14.1769 14.2342 14.3454C14.4151 15.4226 13.8501 16.2929 12.7513 16.6302C12.6349 16.6658 12.1767 16.7556 11.7329 16.8296C10.8347 16.9793 10.4338 17.0853 10.031 17.2795C9.7454 17.4172 9.39959 17.6235 9.42014 17.644C9.42676 17.6506 9.49196 17.635 9.56498 17.6093C10.0729 17.4308 10.6381 17.3384 11.4969 17.2937C11.8377 17.2761 12.2254 17.2478 12.3584 17.231C13.1235 17.1346 13.6538 16.9019 14.0661 16.4818C14.2956 16.248 14.4324 16.0302 14.5426 15.7231C14.6125 15.5283 14.6219 15.456 14.6224 15.1108C14.6231 14.7591 14.6146 14.6948 14.5388 14.4785C14.4397 14.1949 14.3227 13.9821 14.1746 13.8156L14.0676 13.6955L14.1252 13.8673ZM15.2692 16.1851C14.9692 15.5397 14.9003 14.9165 15.0646 14.3354C15.0822 14.2732 15.1105 14.2224 15.1276 14.2224C15.1446 14.2224 15.2153 14.2608 15.2848 14.3076C15.423 14.4007 15.7002 14.5576 16.4388 14.9606C17.3605 15.4636 17.8859 15.853 18.2432 16.298C18.5562 16.6877 18.7498 17.1314 18.843 17.6726C18.8959 17.9792 18.8649 18.7169 18.7863 19.0256C18.5386 19.9989 17.9626 20.7634 17.1412 21.2096C17.0209 21.2749 16.9128 21.3285 16.9011 21.3288C16.8894 21.329 16.9333 21.2175 16.9985 21.0808C17.2749 20.5026 17.3063 19.9402 17.0975 19.3142C16.9695 18.9309 16.7087 18.4632 16.1821 17.6728C15.5698 16.7538 15.4197 16.5092 15.2692 16.1851ZM9.61905 18.3021C8.66952 18.4565 7.62711 18.9594 6.78932 19.6675L6.5399 19.8783L6.7591 19.9126C7.90298 20.0913 8.211 20.2499 9.00445 21.068C9.46106 21.5387 9.61527 21.6435 9.994 21.7403C10.5503 21.8824 11.0986 21.6213 11.2867 21.1246C11.3707 20.9026 11.3595 20.5351 11.2631 20.3506C11.0338 19.9112 10.3656 19.7692 10.0426 20.091C9.77347 20.3591 9.85188 20.763 10.1866 20.8324C10.2632 20.8484 10.261 20.845 10.167 20.8025C10.0206 20.7362 9.95694 20.6443 9.95612 20.498C9.95425 20.155 10.3463 19.9625 10.7111 20.1272C10.9782 20.2479 11.0842 20.4055 11.0842 20.6818C11.0842 21.1073 10.7224 21.4279 10.3014 21.3755C10.0763 21.3474 9.8011 21.2034 9.65351 21.0364C9.28216 20.6161 9.42682 19.9529 9.9453 19.6984C10.34 19.5047 10.8647 19.5524 11.2716 19.8191C11.739 20.1255 11.9378 20.4056 12.3405 21.3248C12.4716 21.6241 12.6403 21.961 12.7153 22.0735C13.0967 22.6449 13.5537 22.9252 14.1041 22.9252C14.4077 22.9252 14.6361 22.8697 14.9234 22.7261C15.1369 22.6194 15.4396 22.4165 15.4177 22.3948C15.4115 22.3887 15.323 22.4162 15.2209 22.456C14.6199 22.6907 14.009 22.6746 13.6542 22.4146C13.4307 22.2509 13.2505 21.9249 13.1579 21.5172C13.1418 21.4466 13.0889 21.1349 13.0403 20.8245C12.9169 20.0378 12.7985 19.6841 12.5223 19.2783C12.2396 18.8631 11.6963 18.5146 11.0889 18.359C10.71 18.2619 10.0283 18.2355 9.61905 18.3021ZM8.28919 12.2193C8.37119 11.9161 8.63609 11.627 8.9086 11.5432C9.08188 11.49 9.44006 11.524 9.60848 11.6097C9.93484 11.7758 10.1718 12.1541 10.1204 12.4272C10.0577 12.7601 9.51816 13.0266 8.89758 13.031C8.5806 13.0331 8.46353 12.9905 8.34248 12.8288C8.26756 12.7285 8.23917 12.4042 8.28919 12.2193ZM9.52514 11.7284C9.6879 11.8279 9.72977 11.975 9.63407 12.111C9.56815 12.2048 9.36407 12.2939 9.21493 12.2939C8.99088 12.2939 8.74645 12.1346 8.74645 11.9888C8.74645 11.6957 9.21518 11.5389 9.52514 11.7284ZM58.1696 12.5675C57.6633 10.8987 58.4982 9.51454 60.2797 9.06974C60.7906 8.9421 63.1041 8.99969 63.5004 9.14996C63.646 9.20502 63.7094 9.41637 63.7107 9.85072C63.7117 10.1928 63.7493 10.6082 63.7942 10.7739C63.8624 11.0251 63.8226 11.0745 63.5552 11.0704C63.3133 11.0667 63.167 10.9262 62.9628 10.5012C62.6366 9.82246 62.2416 9.60655 61.3213 9.60402C60.1464 9.60067 59.2867 10.3846 59.4266 11.3318C59.5178 11.9481 60.1392 12.5546 61.5339 13.3884C62.8608 14.1815 63.6353 14.8337 63.9438 15.418C64.769 16.9803 64.0644 18.6521 62.2259 19.4945C61.2822 19.9269 59.7005 19.9716 58.5885 19.5973L57.8764 19.3576V18.2301C57.8764 17.2089 57.901 17.1023 58.1359 17.1023C58.3324 17.1023 58.4172 17.231 58.4862 17.6342C58.6578 18.6366 59.4265 19.2452 60.5214 19.2452C61.594 19.2452 62.3437 18.6645 62.631 17.6115C62.7533 17.1629 62.7322 16.9976 62.4895 16.5027C62.1987 15.9094 61.698 15.5157 59.9974 14.5435C59.0538 14.004 58.3865 13.2826 58.1696 12.5675ZM24.8329 9.73593C24.6008 9.73593 24.5103 9.6608 24.5103 9.46806C24.5103 9.21292 24.6008 9.20019 26.4191 9.20019C28.1068 9.20019 28.3228 9.22537 28.2841 9.4173C28.2599 9.53677 28.0267 9.70245 27.7656 9.78563L27.2908 9.93683L27.2503 13.3522C27.2231 15.6311 27.2613 16.9458 27.3648 17.3032C27.6727 18.3661 28.6119 18.9774 29.9371 18.9774C30.8596 18.9774 31.3985 18.7637 32.0756 18.1289C32.8038 17.4465 32.92 16.7982 32.9177 13.4283C32.9155 10.1043 32.857 9.82995 32.1367 9.76097C31.8088 9.7295 31.699 9.65382 31.699 9.45962C31.699 9.21746 31.8071 9.20019 33.3266 9.20019C34.8638 9.20019 34.9542 9.21506 34.9542 9.46806C34.9542 9.63307 34.863 9.73673 34.7168 9.73794C34.0886 9.74342 34.0771 9.80265 33.9925 13.4475C33.9048 17.2326 33.8229 17.6808 33.0488 18.608C32.8256 18.8754 32.2932 19.2638 31.8658 19.4711C31.1693 19.8089 30.9478 19.8476 29.7322 19.8455C28.6117 19.8432 28.258 19.7895 27.6977 19.5368C26.8799 19.1679 26.348 18.6904 25.9559 17.9729C25.6822 17.472 25.6588 17.201 25.5954 13.8075C25.5228 9.92319 25.4877 9.73593 24.8329 9.73593ZM37.5249 9.73593C37.2148 9.73593 37.1244 9.67539 37.1244 9.46806C37.1244 9.21694 37.211 9.20087 38.5146 9.21118L39.9049 9.22216L40.5701 9.9813C40.9357 10.3988 42.1278 11.7048 43.2189 12.8833C44.3101 14.062 45.5629 15.4331 46.0028 15.9303C46.4428 16.4277 46.8568 16.8344 46.923 16.8344C46.991 16.8344 47.0249 15.4298 47.0006 13.6082L46.9578 10.382L46.5772 10.059C46.368 9.88125 46.0477 9.73593 45.8652 9.73593C45.6226 9.73593 45.5337 9.66306 45.5337 9.46431C45.5337 9.20273 45.603 9.19403 47.3986 9.22993C48.9255 9.26046 49.2636 9.30266 49.2636 9.46257C49.2636 9.57655 49.0748 9.69616 48.8102 9.7496C48.561 9.79997 48.2862 9.91086 48.1999 9.99604C48.0885 10.106 48.0317 11.5277 48.0042 14.899L47.9652 19.647H47.5722C47.2337 19.647 46.8309 19.2696 44.6772 16.9349C43.3012 15.4431 41.695 13.6702 41.1079 12.9951C40.5208 12.3199 39.9947 11.7624 39.9387 11.7562C39.7813 11.7388 39.8194 17.771 39.9804 18.3436C40.106 18.7898 40.1923 18.8666 40.7257 19.0076C41.1553 19.121 41.3291 19.2361 41.3291 19.407C41.3291 19.6264 41.1653 19.647 39.4302 19.647C37.6639 19.647 37.5313 19.6295 37.5313 19.396C37.5313 19.2249 37.6591 19.1196 37.932 19.0657C38.7602 18.9022 38.8152 18.6426 38.8617 14.6745C38.8877 12.4521 38.8495 10.8972 38.7607 10.5716C38.6046 9.99899 38.2156 9.73593 37.5249 9.73593ZM51.7471 9.73593C51.4565 9.73593 51.366 9.67232 51.366 9.46806C51.366 9.21212 51.4565 9.20019 53.4006 9.20019C55.3446 9.20019 55.4351 9.21212 55.4351 9.46806C55.4351 9.66455 55.3446 9.73593 55.0959 9.73593C54.9095 9.73593 54.6324 9.8589 54.4801 10.0092C54.2115 10.2745 54.2046 10.4064 54.2429 14.5069C54.2801 18.5098 54.296 18.7414 54.5454 18.9214C54.6903 19.0259 54.9496 19.1113 55.1219 19.1113C55.3446 19.1113 55.4351 19.1886 55.4351 19.3792C55.4351 19.6352 55.3446 19.647 53.4006 19.647C51.5027 19.647 51.366 19.6302 51.366 19.3964C51.366 19.2078 51.4992 19.1245 51.9034 19.0607C52.706 18.934 52.747 18.6745 52.697 14.0443C52.657 10.3364 52.6398 10.1052 52.3913 9.92585C52.2464 9.82138 51.9566 9.73593 51.7471 9.73593ZM65.9389 9.73593C65.7533 9.73593 65.6122 9.63401 65.5683 9.46806C65.4999 9.20904 65.5643 9.20019 67.5193 9.20019C69.4506 9.20019 69.541 9.21212 69.541 9.46806C69.541 9.67392 69.4506 9.73593 69.1507 9.73593C68.2969 9.73593 68.3161 9.88914 69.6084 13.3918C70.266 15.1748 70.9048 16.8684 71.0275 17.1555L71.2507 17.6774L72.2866 14.9455C73.5061 11.7298 73.6645 11.1351 73.4575 10.5486C73.3131 10.1399 72.7519 9.73593 72.3284 9.73593C72.2087 9.73593 72.1181 9.62075 72.1181 9.46806C72.1181 9.21171 72.2087 9.20019 74.2205 9.20019C76.2324 9.20019 76.3228 9.21171 76.3228 9.46806C76.3228 9.65866 76.2324 9.73593 76.0097 9.73593C75.4394 9.73593 75.188 10.0362 75.2699 10.6196C75.3542 11.2202 77.687 17.6748 77.7849 17.5783C77.944 17.4212 80.5275 10.4727 80.5275 10.2019C80.5275 9.87737 80.2976 9.73593 79.7704 9.73593C79.5329 9.73593 79.4424 9.66214 79.4424 9.46806C79.4424 9.21506 79.5329 9.20019 81.0701 9.20019C82.4507 9.20019 82.6977 9.23182 82.6977 9.40807C82.6977 9.52245 82.5286 9.67419 82.3218 9.74531C81.8569 9.90536 81.7401 10.088 81.1569 11.5679C80.9008 12.2177 80.0992 14.2515 79.3755 16.0872C78.6518 17.9231 78.0286 19.5052 77.9906 19.603C77.9525 19.701 77.7282 19.781 77.492 19.781H77.0627L76.0885 17.2697C75.5525 15.8886 74.9194 14.2524 74.6817 13.6336C74.274 12.5733 74.2398 12.5273 74.0865 12.8299C73.997 13.0067 73.3533 14.6459 72.6558 16.4727L71.3879 19.7941L70.9147 19.7541L70.4414 19.7141L68.6366 15.0368C67.6282 12.4236 66.701 10.2218 66.5352 10.0477C66.372 9.87617 66.1037 9.73593 65.9389 9.73593ZM93.0594 9.79273C93.0367 9.74185 93.0368 9.55901 93.0368 9.55901C93.0368 9.55901 93.0317 9.49306 93.0596 9.45788C93.0874 9.42282 93.0972 9.42188 93.197 9.41249L93.198 9.41239C93.5642 9.37788 94.2989 9.31979 94.9121 9.29328C94.9682 9.29084 95.0306 9.28804 95.0985 9.28499L95.0999 9.28493L95.1007 9.28489L95.1012 9.28487C95.7761 9.25452 96.9837 9.21394 97.8137 9.25504C99.4061 9.33389 100.539 10.0967 100.925 11.3572C101.311 12.6177 101.107 13.801 100.581 14.5541C100.054 15.3073 99.1697 15.9558 97.6991 15.9136C96.4851 15.8788 96.1603 15.6535 95.9007 15.4735C95.8459 15.4355 95.7939 15.3994 95.7372 15.3677V16.9752C95.75 18.0715 95.7592 18.5981 95.8449 18.793C95.9603 19.0554 96.2212 19.217 96.7296 19.341C96.7296 19.341 96.9595 19.3944 97.0189 19.4514C97.0782 19.5083 97.0782 19.6348 97.0782 19.6348C97.0782 19.6348 97.0903 19.7531 97.0427 19.8134C96.995 19.8737 96.903 19.8617 96.903 19.8617L94.6517 19.8437L93.2944 19.8402C93.2944 19.8402 93.1519 19.8672 93.0985 19.8104C93.0451 19.7536 93.05 19.6352 93.05 19.6352C93.05 19.6352 93.0618 19.5076 93.1241 19.4505C93.1864 19.3934 93.4181 19.3295 93.4181 19.3295C93.9416 19.1839 94.1686 19.0298 94.2873 18.7396C94.3829 18.5056 94.3835 18.0716 94.3825 14.5305C94.3816 11.1724 94.3767 10.546 94.2989 10.3658C94.184 10.0991 93.896 10.0285 93.486 9.92789L93.4858 9.92784C93.4046 9.90789 93.3185 9.88677 93.2281 9.86271C93.2281 9.86271 93.0821 9.84361 93.0594 9.79273ZM99.6145 12.5329C99.6145 13.0836 99.6047 13.9457 99.0131 14.4968C98.4216 15.0478 97.2568 15.1987 96.4662 15.0452C96.2169 14.9969 96.0744 14.9224 95.9646 14.8649L95.9536 14.8592L95.7512 14.7535L95.7395 12.8188C95.7321 11.6065 95.7449 10.8167 95.7738 10.7038C95.8001 10.0646 96.7515 9.9851 97.2164 10.0088C99.2053 10.0088 99.5565 11.6694 99.6145 12.5329ZM86.8139 9.27521C86.8139 9.27521 86.7167 9.31216 86.5694 9.36748L86.0384 9.6393L85.6559 10.5854C85.4457 11.1057 85.0609 12.0609 84.801 12.7081C84.3277 13.8867 84.0151 14.6611 83.6861 15.4694C83.5894 15.7071 83.2972 16.4311 83.0369 17.0782C82.7766 17.7253 82.5164 18.3411 82.4587 18.4467C82.4491 18.4643 82.4389 18.4832 82.4282 18.5032C82.2827 18.7743 82.0298 19.2452 81.5832 19.3164C81.5832 19.3164 81.3377 19.3403 81.2468 19.4293C81.1558 19.5184 81.1646 19.5912 81.1646 19.5912V19.7034C81.1646 19.7034 81.1729 19.7577 81.2244 19.7847C81.2759 19.8119 81.3457 19.8134 81.3457 19.8134L82.9792 19.795H84.6675C84.6675 19.795 84.7869 19.8089 84.8329 19.771C84.879 19.7332 84.8917 19.6771 84.8917 19.6771V19.559C84.8917 19.559 84.8682 19.4309 84.8014 19.3809C84.7345 19.331 84.4839 19.2968 84.4839 19.2968C83.808 19.2087 83.6917 18.7021 83.7751 18.2466C83.8161 18.0228 84.0877 17.1949 84.3936 16.3613L84.4994 16.0733L86.2685 16.0599C87.2414 16.0525 88.0815 16.0575 88.1352 16.071C88.212 16.0902 88.3196 16.3065 88.6352 17.0771C89.1135 18.2445 89.1517 18.3867 89.0458 18.6051C89.0393 18.6185 89.0325 18.6331 89.025 18.6489C88.9257 18.8602 88.7328 19.2706 88.2467 19.3124C88.2467 19.3124 87.9888 19.3212 87.9246 19.3976C87.8605 19.4741 87.8743 19.5621 87.8743 19.5621V19.6789C87.8743 19.6789 87.8915 19.7474 87.9246 19.7746C87.9577 19.8017 88.0138 19.7948 88.0138 19.7948L89.6195 19.7834L91.8768 19.7833C91.8768 19.7833 91.9653 19.7927 91.9894 19.759C92.0135 19.7252 92.0185 19.6855 92.0185 19.6855V19.5303C92.0185 19.5303 92.0086 19.4477 91.9652 19.4022C91.9219 19.3568 91.6291 19.3087 91.6291 19.3087C91.2552 19.249 91.069 18.9431 90.9303 18.7153C90.895 18.6572 90.8627 18.6042 90.8312 18.5617C90.7669 18.4749 90.5374 17.9992 90.3575 17.5417C90.1778 17.0841 89.7723 16.0506 89.4564 15.245C89.1404 14.4395 88.6995 13.3157 88.4766 12.7479C88.2537 12.18 87.8301 11.0994 87.5352 10.3467C87.4868 10.2231 87.4434 10.1121 87.4046 10.0128L87.4045 10.0124C87.2067 9.50682 87.127 9.30282 87.1051 9.27521C87.034 9.18556 86.8139 9.27521 86.8139 9.27521ZM86.7087 12.3514C86.6375 12.1798 86.512 11.8718 86.4301 11.6671C86.2812 11.2951 86.2246 11.2094 86.1785 11.2862C86.165 11.3087 86.0712 11.563 85.9701 11.8514C85.3155 13.7184 85.019 14.5591 84.9596 14.7176C84.9222 14.8172 84.8917 14.9198 84.8917 14.9456C84.8917 14.9754 85.4242 14.9927 86.3364 14.9927C87.131 14.9927 87.7811 14.983 87.7811 14.971C87.7811 14.9591 87.7103 14.7809 87.6236 14.5748C87.537 14.3688 87.3248 13.8545 87.1523 13.4319C86.9797 13.0093 86.7801 12.5231 86.7087 12.3514Z" fill="#FF007A"/>
</svg>
