<svg width="120" height="132" viewBox="0 0 120 132" fill="none" xmlns="http://www.w3.org/2000/svg">
    <mask id="mask0_1791_2927" style="mask-type:alpha" maskUnits="userSpaceOnUse" x="0" y="0" width="120" height="132">
    <rect width="120" height="132" fill="#FF0000"/>
    </mask>
    <g mask="url(#mask0_1791_2927)">
    </g>
    <g clip-path="url(#clip0_1791_2927)">
    <path fill-rule="evenodd" clip-rule="evenodd" d="M99.1061 21.8192C118.11 36.3384 121.777 67.0453 106.789 93.1272C91.8306 119.209 63.5434 131.357 41.5423 122.078C35.8383 119.677 30.7163 117.072 24.6631 113.56L53.998 62.4788L83.3328 11.3396C89.386 14.8523 94.1879 18.043 99.1061 21.7899V21.8192Z" fill="url(#paint0_linear_1791_2927)"/>
    <path fill-rule="evenodd" clip-rule="evenodd" d="M83.3331 11.3398C106.12 24.571 111.446 58.1759 95.265 86.3947C79.0551 114.613 47.4794 126.761 24.6925 113.53C1.90559 100.299 -3.42008 66.6942 12.7898 38.4755C28.9705 10.286 60.5462 -1.89142 83.3331 11.3398Z" fill="url(#paint1_radial_1791_2927)"/>
    <path fill-rule="evenodd" clip-rule="evenodd" d="M75.5336 21.7607C92.5583 31.6548 96.1378 57.5317 83.4784 79.574C70.819 101.616 46.7808 111.452 29.727 101.558C12.7022 91.6636 9.1227 65.7866 21.7821 43.7444C34.4415 21.7021 58.4798 11.8666 75.5336 21.7607Z" fill="url(#paint2_radial_1791_2927)"/>
    <g style="mix-blend-mode:multiply" opacity="0.5">
    <path fill-rule="evenodd" clip-rule="evenodd" d="M31.0948 52.4676C43.0557 31.5962 65.8426 22.2876 81.9651 31.6548C84.2642 33.0013 86.3304 34.6406 88.1057 36.5726C85.5447 30.3083 81.2958 25.127 75.5336 21.7607C58.5089 11.8666 34.4415 21.7021 21.7821 43.7444C9.1227 65.7866 12.7022 91.6636 29.727 101.558C30.9492 102.26 32.2297 102.875 33.5393 103.402C21.8985 92.249 20.4725 70.9386 31.0656 52.4676H31.0948Z" fill="url(#paint3_radial_1791_2927)"/>
    </g>
    <path fill-rule="evenodd" clip-rule="evenodd" d="M27.4281 46.9936C39.0107 26.8248 60.1388 16.8721 76.6978 22.9023C77.2217 23.1072 77.7455 23.3121 78.2694 23.517C77.8328 23.195 77.3672 22.873 76.9016 22.551C76.465 22.2583 76.0285 21.9948 75.5629 21.7314C58.5382 11.8373 34.4708 21.6728 21.8114 43.7151C9.152 65.7573 12.7316 91.6343 29.7562 101.528C30.2219 101.792 30.6875 102.055 31.1531 102.29C31.6479 102.553 32.1717 102.787 32.6665 102.992C32.2008 102.641 31.7643 102.29 31.3569 101.938C17.8826 90.5219 15.8746 67.1331 27.4572 46.9643L27.4281 46.9936Z" fill="url(#paint4_linear_1791_2927)"/>
    <g style="mix-blend-mode:multiply">
    <path fill-rule="evenodd" clip-rule="evenodd" d="M69.1899 77.3495C86.4183 68.2164 86.622 67.4846 75.7379 55.4829C74.923 54.6047 74.6029 53.3752 74.7775 51.8823C77.1057 31.4793 76.6109 31.1866 60.2265 43.4226C59.0333 44.33 57.811 44.652 56.6469 44.3885C40.8736 40.9051 40.3498 41.4613 41.1064 61.0154C41.1646 62.4497 40.7281 63.8548 39.855 65.2013C27.7777 83.4382 27.9523 84.0822 44.8024 83.9358C46.0538 83.9358 46.985 84.4627 47.5962 85.5458C55.9194 100.299 56.5305 100.123 66.2215 80.4816C66.9199 79.0473 67.9385 77.9642 69.1899 77.2909V77.3495Z" fill="#BD6500"/>
    </g>
    <path fill-rule="evenodd" clip-rule="evenodd" d="M68.2291 77.2323C86.0978 67.5723 86.3306 66.8112 75.1554 54.3704C74.3406 53.4629 74.0204 52.2042 74.1951 50.6235C76.756 29.3131 76.2613 29.0496 59.2075 41.9003C57.9561 42.837 56.7047 43.1883 55.5115 42.9248C39.2144 39.4121 38.6615 39.9976 39.3017 60.4005C39.3599 61.8934 38.8943 63.3863 37.963 64.7914C25.3327 83.9064 25.5073 84.5797 42.9395 84.287C44.2199 84.287 45.1803 84.8431 45.8206 85.9555C54.3184 101.294 54.9586 101.119 65.1152 80.5401C65.8719 79.0179 66.9195 77.9055 68.2291 77.1737V77.2323Z" fill="url(#paint5_radial_1791_2927)"/>
    <mask id="mask1_1791_2927" style="mask-type:luminance" maskUnits="userSpaceOnUse" x="29" y="33" width="54" height="64">
    <path d="M68.2291 77.2323C86.0978 67.5723 86.3306 66.8112 75.1554 54.3704C74.3406 53.4629 74.0204 52.2042 74.1951 50.6235C76.756 29.3131 76.2613 29.0496 59.2075 41.9003C57.9561 42.837 56.7047 43.1883 55.5115 42.9248C39.2144 39.4121 38.6615 39.9976 39.3017 60.4005C39.3599 61.8934 38.8943 63.3863 37.963 64.7914C25.3327 83.9064 25.5073 84.5797 42.9395 84.287C44.2199 84.287 45.1803 84.8431 45.8206 85.9555C54.3184 101.294 54.9586 101.119 65.1152 80.5401C65.8719 79.0179 66.9195 77.9055 68.2291 77.1737V77.2323Z" fill="white"/>
    </mask>
    <g mask="url(#mask1_1791_2927)">
    <g style="mix-blend-mode:screen" opacity="0.75">
    <path d="M58.4801 46.4374C58.4801 46.9936 57.8689 47.6083 57.1414 47.7839C56.4429 47.9596 55.89 47.6376 55.9191 47.0814C55.9482 46.5252 56.5302 45.969 57.2578 45.7934C57.9562 45.6178 58.5092 45.8812 58.4801 46.4081V46.4374Z" fill="#FFFBEB"/>
    </g>
    </g>
    <path style="mix-blend-mode:screen" fill-rule="evenodd" clip-rule="evenodd" d="M70.2954 37.568C68.9567 39.7049 62.4961 44.7691 59.7023 45.0325C58.3927 45.2667 58.2181 44.5934 59.5568 43.1591C61.1283 41.4613 67.2979 36.8948 69.6843 35.7531C71.1685 35.0506 71.314 35.9288 70.2954 37.568Z" fill="url(#paint6_radial_1791_2927)"/>
    <g style="mix-blend-mode:screen">
    <path d="M63.4851 79.8374C63.4851 79.8374 63.4269 80.1887 63.1359 80.6863C62.8449 81.184 62.5539 81.623 62.4666 81.6523C62.3793 81.6523 62.5248 81.2132 62.8158 80.7156C63.1068 80.218 63.3978 79.8374 63.4851 79.8374Z" fill="#FFB600"/>
    </g>
    <g style="mix-blend-mode:screen">
    <path d="M39.3602 66.0503C39.3602 66.0503 39.0983 66.2845 38.8073 66.7528C38.5162 67.2212 38.3125 67.6895 38.3416 67.7774C38.3707 67.8652 38.6909 67.5139 38.9819 67.0455C39.2729 66.5772 39.4184 66.1381 39.3602 66.0503Z" fill="#FF8500"/>
    </g>
    <g style="mix-blend-mode:screen">
    <path d="M73.6418 56.2732C73.6418 56.2732 73.9037 56.3611 74.1365 56.6831C74.3693 57.0051 74.5731 57.3856 74.5149 57.5027C74.4566 57.6198 74.1947 57.4149 73.9328 57.0929C73.7 56.7416 73.5836 56.3903 73.6418 56.3025V56.2732Z" fill="#FFC715"/>
    </g>
    </g>
    <defs>
    <linearGradient id="paint0_linear_1791_2927" x1="51.0586" y1="128.869" x2="110.244" y2="26.9779" gradientUnits="userSpaceOnUse">
    <stop stop-color="#D47100"/>
    <stop offset="0.69" stop-color="#FFC60D"/>
    <stop offset="1" stop-color="#E8810C"/>
    </linearGradient>
    <radialGradient id="paint1_radial_1791_2927" cx="0" cy="0" r="1" gradientUnits="userSpaceOnUse" gradientTransform="translate(32.9575 9.26143) scale(102.497 103.098)">
    <stop stop-color="#FFEC2B"/>
    <stop offset="1" stop-color="#FCB00D"/>
    </radialGradient>
    <radialGradient id="paint2_radial_1791_2927" cx="0" cy="0" r="1" gradientUnits="userSpaceOnUse" gradientTransform="translate(47.8866 6.62678) scale(108.696 109.333)">
    <stop stop-color="#FF4545"/>
    <stop offset="0.78" stop-color="#BF0008"/>
    <stop offset="0.84" stop-color="#B50006"/>
    <stop offset="0.96" stop-color="#9B0001"/>
    <stop offset="1" stop-color="#910000"/>
    </radialGradient>
    <radialGradient id="paint3_radial_1791_2927" cx="0" cy="0" r="1" gradientUnits="userSpaceOnUse" gradientTransform="translate(73.3218 71.2606) scale(72.3477 72.7716)">
    <stop offset="0.51" stop-color="white"/>
    <stop offset="0.69" stop-color="#FFE6C2"/>
    <stop offset="1" stop-color="#FFB74B"/>
    </radialGradient>
    <linearGradient id="paint4_linear_1791_2927" x1="15.7291" y1="93.4199" x2="61.2337" y2="15.0533" gradientUnits="userSpaceOnUse">
    <stop stop-color="#D95F00"/>
    <stop offset="0.31" stop-color="#FFB121"/>
    <stop offset="1" stop-color="#CC5810"/>
    </linearGradient>
    <radialGradient id="paint5_radial_1791_2927" cx="0" cy="0" r="1" gradientUnits="userSpaceOnUse" gradientTransform="translate(66.3113 29.5254) rotate(30.1452) scale(51.0491 51.1978)">
    <stop stop-color="#FFE150"/>
    <stop offset="0.17" stop-color="#FFCD2F"/>
    <stop offset="0.32" stop-color="#FFC11B"/>
    <stop offset="0.42" stop-color="#FFBD14"/>
    <stop offset="0.53" stop-color="#FBB416"/>
    <stop offset="0.7" stop-color="#F39E1B"/>
    <stop offset="0.92" stop-color="#E57925"/>
    <stop offset="0.98" stop-color="#E26F28"/>
    </radialGradient>
    <radialGradient id="paint6_radial_1791_2927" cx="0" cy="0" r="1" gradientUnits="userSpaceOnUse" gradientTransform="translate(72.7729 64.6047) rotate(30.1452) scale(24.2106 34.1987)">
    <stop offset="0.67"/>
    <stop offset="0.7" stop-color="#070705"/>
    <stop offset="0.74" stop-color="#1D1C15"/>
    <stop offset="0.8" stop-color="#413D2F"/>
    <stop offset="0.86" stop-color="#726C54"/>
    <stop offset="0.93" stop-color="#B2A982"/>
    <stop offset="1" stop-color="#FFF2BB"/>
    </radialGradient>
    <clipPath id="clip0_1791_2927">
    <rect width="114" height="120" fill="white" transform="translate(3 6)"/>
    </clipPath>
    </defs>
    </svg>
    