<svg width="120" height="132" viewBox="0 0 120 132" fill="none" xmlns="http://www.w3.org/2000/svg">
    <g clip-path="url(#clip0_1795_3076)">
        <path fill-rule="evenodd" clip-rule="evenodd"
            d="M47.9742 120.465L62.0164 127.969C63.4237 128.731 65.0757 128.884 66.9113 128.457C69.8177 127.786 72.3569 125.742 74.0701 122.692L85.8485 101.706C87.7146 98.3813 90.0703 95.9716 93.1296 94.2024L112.464 83.1605C115.279 81.5744 117.298 78.8901 118.247 75.5958C119.195 72.3016 118.767 69.3428 117.023 67.1771L105.122 52.2003C103.256 49.8211 102.399 46.9844 102.491 43.4766L103.103 21.0877C103.195 17.8544 101.971 15.3532 99.6153 13.9806L85.9402 5.53137L47.9436 120.404L47.9742 120.465Z"
            fill="url(#paint0_linear_1795_3076)" />
        <path fill-rule="evenodd" clip-rule="evenodd"
            d="M34.2073 102.743C32.4023 100.272 30.0772 98.9303 27.0179 98.5948L7.68308 96.5816C6.85706 96.4901 6.09224 96.2766 5.41919 95.941L19.7979 103.628C20.5322 104.024 21.3582 104.268 22.276 104.39L36.5018 105.885L34.2073 102.743Z"
            fill="url(#paint1_linear_1795_3076)" />
        <path fill-rule="evenodd" clip-rule="evenodd"
            d="M89.2443 12.5774L88.6324 35.1493C88.5406 38.7182 89.3972 41.5854 91.294 43.9646L103.286 59.0634C105.03 61.2596 105.459 64.2488 104.51 67.5736C103.562 70.8984 101.512 73.5826 98.6669 75.1993L79.1791 86.3327C76.0892 88.1019 73.703 90.5421 71.8368 93.8974L59.9667 115.066C58.2535 118.116 55.6836 120.191 52.7467 120.862C49.8098 121.563 47.3011 120.679 45.6491 118.421L34.2379 102.743C32.4329 100.272 30.1078 98.9303 27.0485 98.5948L7.71367 96.5816C4.8991 96.2766 2.91055 94.5379 2.02335 91.6707C1.16674 88.7729 1.65623 85.5701 3.46123 82.5504L15.9126 61.7171C17.8706 58.4228 18.819 55.1285 18.819 51.5902L18.7578 29.1708C18.7578 25.9376 20.0427 22.7958 22.4595 20.3251C24.8764 17.8544 27.691 16.7258 30.4749 17.1223L49.5956 19.9286C52.6243 20.3861 55.5307 19.6845 58.59 17.8239L77.8942 5.98886C80.6782 4.28072 83.4928 4.0672 85.8484 5.43982C88.2041 6.78193 89.4584 9.31365 89.3666 12.6079L89.2443 12.5774Z"
            fill="url(#paint2_radial_1795_3076)" />
        <path fill-rule="evenodd" clip-rule="evenodd"
            d="M71.0718 25.6936L62.6893 30.8486C56.8154 34.4479 50.8192 35.851 44.9759 34.9969L36.6546 33.7768C35.5838 33.6243 34.4825 34.0513 33.5647 34.9969C32.6469 35.9425 32.1268 37.1626 32.1268 38.4132V48.174C32.188 55.0066 30.2301 61.7782 26.4671 68.1227L21.0521 77.182C20.3485 78.3411 20.1649 79.5917 20.5014 80.7203C20.838 81.8489 21.6028 82.52 22.7042 82.6115L31.1173 83.496C37.0217 84.1061 41.8248 86.8818 45.3124 91.6707L50.2685 98.5033C50.911 99.3879 51.89 99.7234 53.0219 99.4489C54.1539 99.1744 55.1328 98.3813 55.8059 97.1917L60.9761 87.9799C64.5861 81.5439 69.5116 76.4805 75.4466 73.0947L83.9209 68.2448C85.0223 67.6347 85.8177 66.5671 86.1848 65.286C86.5519 64.0049 86.3684 62.8458 85.7259 61.9917L80.4945 55.4337C76.8233 50.8278 75.0489 44.9408 75.2631 38.0777L75.5384 28.2558C75.569 27.0052 75.1101 26.0292 74.1923 25.4801C73.2745 24.9311 72.2038 25.0226 71.1024 25.6936H71.0718Z"
            fill="url(#paint3_radial_1795_3076)" />
        <path fill-rule="evenodd" clip-rule="evenodd"
            d="M36.5628 50.7057V40.9449C36.5322 39.6943 37.0217 38.4742 37.9701 37.5286C38.8879 36.583 39.9893 36.1255 41.06 36.3085L49.3813 37.5286C55.2246 38.3827 61.1903 36.9795 67.0947 33.3802L75.4772 28.2253C75.5384 26.9747 75.0489 25.9986 74.1617 25.4801C73.2439 24.9615 72.1732 25.0225 71.0718 25.6936L62.6893 30.8485C56.8155 34.4478 50.8192 35.8509 44.9759 34.9969L36.6546 33.7768C35.5838 33.6242 34.4825 34.0513 33.5647 34.9969C32.6469 35.9424 32.1268 37.1625 32.1268 38.4132V48.174C32.188 55.0066 30.2301 61.7781 26.4671 68.1227L21.0521 77.182C20.3485 78.3411 20.1649 79.5917 20.5014 80.7203C20.838 81.8489 21.6028 82.5199 22.7042 82.6114L24.8151 82.8249C24.6315 81.8183 24.8457 80.7508 25.4575 79.7137L30.8725 70.6544C34.6661 64.3099 36.5934 57.5383 36.5628 50.7057Z"
            fill="url(#paint4_linear_1795_3076)" />
    </g>
    <defs>
        <linearGradient id="paint0_linear_1795_3076" x1="54.0978" y1="123.961" x2="113.231"
            y2="21.2356" gradientUnits="userSpaceOnUse">
            <stop stop-color="#A13900" />
            <stop offset="0.01" stop-color="#C36B0B" />
            <stop offset="0.03" stop-color="#DC8F13" />
            <stop offset="0.04" stop-color="#F2AE1B" />
            <stop offset="0.06" stop-color="#ECA51C" />
            <stop offset="0.09" stop-color="#DE8F1E" />
            <stop offset="0.11" stop-color="#CF7622" />
            <stop offset="0.35" stop-color="#F2A144" />
            <stop offset="0.46" stop-color="#F2A341" />
            <stop offset="0.53" stop-color="#F5AB39" />
            <stop offset="0.58" stop-color="#FBB92B" />
            <stop offset="0.61" stop-color="#FFC321" />
            <stop offset="0.76" stop-color="#F7A731" />
            <stop offset="0.96" stop-color="#FFA21C" />
            <stop offset="0.97" stop-color="#F79A19" />
            <stop offset="0.98" stop-color="#E38613" />
            <stop offset="0.99" stop-color="#C26409" />
            <stop offset="1" stop-color="#A34500" />
        </linearGradient>
        <linearGradient id="paint1_linear_1795_3076" x1="19.5554" y1="103.513" x2="23.6006"
            y2="95.875" gradientUnits="userSpaceOnUse">
            <stop stop-color="#85380F" />
            <stop offset="0.02" stop-color="#8E410E" />
            <stop offset="0.09" stop-color="#A1540D" />
            <stop offset="0.15" stop-color="#AC5F0C" />
            <stop offset="0.22" stop-color="#B0630C" />
            <stop offset="0.23" stop-color="#AF620C" />
            <stop offset="0.72" stop-color="#90430E" />
            <stop offset="1" stop-color="#85380F" />
        </linearGradient>
        <radialGradient id="paint2_radial_1795_3076" cx="0" cy="0" r="1"
            gradientUnits="userSpaceOnUse"
            gradientTransform="translate(65.4934 0.694555) rotate(29.9266) scale(119.194 119.018)">
            <stop stop-color="#FFEC2B" />
            <stop offset="0.76" stop-color="#FCB00D" />
            <stop offset="1" stop-color="#E87D0C" />
        </radialGradient>
        <radialGradient id="paint3_radial_1795_3076" cx="0" cy="0" r="1"
            gradientUnits="userSpaceOnUse"
            gradientTransform="translate(9.82445 9.34423) scale(118.732 118.381)">
            <stop stop-color="#FFEA00" />
            <stop offset="0.78" stop-color="#F79E0C" />
            <stop offset="0.83" stop-color="#F0940A" />
            <stop offset="0.93" stop-color="#E07A04" />
            <stop offset="1" stop-color="#D16100" />
        </radialGradient>
        <linearGradient id="paint4_linear_1795_3076" x1="24.2275" y1="83.7315" x2="61.8423"
            y2="18.3874" gradientUnits="userSpaceOnUse">
            <stop stop-color="#CF681C" />
            <stop offset="0.05" stop-color="#E7861C" />
            <stop offset="0.09" stop-color="#F89A1C" />
            <stop offset="0.12" stop-color="#FFA21C" />
            <stop offset="0.29" stop-color="#EB8C00" />
            <stop offset="0.38" stop-color="#FFB83B" />
            <stop offset="0.4" stop-color="#F8AB3F" />
            <stop offset="0.43" stop-color="#F3A343" />
            <stop offset="0.48" stop-color="#F2A144" />
            <stop offset="0.72" stop-color="#C26800" />
            <stop offset="0.88" stop-color="#BB550C" />
            <stop offset="1" stop-color="#B84D12" />
        </linearGradient>
        <clipPath id="clip0_1795_3076">
            <rect width="120" height="132" fill="white" />
        </clipPath>
    </defs>
</svg>
    