<svg width="16" height="16" viewBox="0 0 16 16" fill="none" xmlns="http://www.w3.org/2000/svg">
<path d="M0 8C0 5.87827 0.842855 3.84344 2.34315 2.34315C3.84344 0.842855 5.87827 0 8 0C10.1217 0 12.1566 0.842855 13.6569 2.34315C15.1571 3.84344 16 5.87827 16 8V14.667C16 14.977 16 15.132 15.966 15.259C15.9206 15.4285 15.8313 15.5831 15.7072 15.7072C15.5831 15.8313 15.4285 15.9206 15.259 15.966C15.132 16 14.977 16 14.667 16H8C5.87827 16 3.84344 15.1571 2.34315 13.6569C0.842855 12.1566 0 10.1217 0 8Z" fill="currentColor" fill-opacity="0.25"/>
<path d="M4.5 6.5H11.5M4.5 9.5H9.5" stroke="currentColor" stroke-linecap="round" stroke-linejoin="round"/>
</svg>
