<svg width="15" height="15" viewBox="0 0 15 15" fill="none" xmlns="http://www.w3.org/2000/svg">
    <path
        d="M4.125 7.12316C4.125 5.41941 4.125 4.56754 4.65187 4.03816C5.17937 3.50879 6.0275 3.50879 7.725 3.50879H9.525C11.2219 3.50879 12.07 3.50879 12.5975 4.03816C13.125 4.56754 13.125 5.41941 13.125 7.12316V10.1357C13.125 11.8394 13.125 12.6913 12.5975 13.2207C12.0706 13.75 11.2219 13.75 9.525 13.75H7.725C6.0275 13.75 5.17937 13.75 4.65187 13.2207C4.125 12.6913 4.125 11.8394 4.125 10.1357V7.12316Z"
        fill="currentColor" />
    <path opacity="0.5"
        d="M2.6075 1.9825C1.875 2.71438 1.875 3.89313 1.875 6.25V7.5C1.875 9.85687 1.875 11.0356 2.6075 11.7675C2.99312 12.1537 3.50312 12.3362 4.245 12.4225C4.125 11.8975 4.125 11.175 4.125 10.135V7.12313C4.125 5.41937 4.125 4.5675 4.65188 4.03813C5.17937 3.50875 6.0275 3.50875 7.725 3.50875H9.525C10.5575 3.50875 11.275 3.50875 11.7987 3.6275C11.7125 2.88187 11.53 2.37 11.1425 1.9825C10.4106 1.25 9.23187 1.25 6.875 1.25C4.51813 1.25 3.33938 1.25 2.6075 1.9825Z"
        fill="currentColor" />
</svg>
    