<svg width="20" height="20" viewBox="0 0 20 20" fill="none" xmlns="http://www.w3.org/2000/svg">
<path opacity="0.4" d="M15.451 3.10223L17.8861 5.87624C18.4512 6.52001 18.4848 7.47958 17.9662 8.1623L11.4048 16.7997C10.6955 17.7334 9.30515 17.7334 8.59585 16.7997L2.03445 8.1623C1.51583 7.47958 1.54946 6.52001 2.11457 5.87624L4.54965 3.10223C4.8859 2.71917 5.36787 2.5 5.87401 2.5H8.42528H11.7723H14.1266C14.6328 2.5 15.1148 2.71917 15.451 3.10223Z" fill="currentColor"/>
<path d="M17.7087 6.36094C18.0538 6.36094 18.3337 6.64076 18.3337 6.98594C18.3337 7.33112 18.0538 7.61094 17.7087 7.61094L2.29199 7.61084C1.94681 7.61084 1.66699 7.33102 1.66699 6.98584C1.66699 6.64066 1.94681 6.36084 2.29199 6.36084L17.7087 6.36094Z" fill="currentColor"/>
</svg>
