<svg width="46" height="46" viewBox="0 0 46 46" fill="none" xmlns="http://www.w3.org/2000/svg">
<g clip-path="url(#clip0_22_220)">
<path d="M24.8917 22.4311L42.7284 11.1818C42.0542 10.1323 41.1383 9.25965 40.0576 8.6368L26.9092 1.04772C24.4904 -0.34924 21.5099 -0.34924 19.091 1.04772L5.94256 8.6368C4.99347 9.18518 4.17047 9.92727 3.5271 10.8148L21.9778 22.4312C22.8688 22.9897 24.0007 22.9897 24.8917 22.4311ZM19.936 10.2862C19.9354 8.59397 21.3069 7.22165 22.9992 7.22111C24.6915 7.22056 26.0638 8.59203 26.0643 10.2844C26.0649 11.9767 24.6934 13.3489 23.0011 13.3495C23.0008 13.3495 23.0005 13.3495 23.0001 13.3495C21.3082 13.3494 19.9364 11.9781 19.936 10.2862Z" fill="currentColor"/>
<path d="M22.8263 23.9632C22.3043 23.8829 21.8044 23.6966 21.3571 23.4159L2.91494 11.8042C2.33538 12.9178 2.0327 14.1547 2.03247 15.41V30.5928C2.03317 33.386 3.52356 35.9667 5.94244 37.3633L19.0909 44.9542C20.2285 45.6117 21.5136 45.9715 22.8272 46C22.8272 46 22.8272 45.9953 22.8272 45.9924L22.8263 23.9632ZM6.7883 34.699C5.56226 33.7959 4.60004 31.7794 4.60004 30.1806C4.60004 28.5819 5.567 27.9276 6.79304 28.7499C8.05661 29.5949 9.10993 31.6657 9.10993 33.3499C9.10993 35.0341 8.05187 35.6331 6.7883 34.699ZM16.1873 30.2427C14.9613 29.3358 13.9943 27.323 13.9943 25.7243C13.9943 24.1256 14.9613 23.4712 16.1873 24.2936C17.4509 25.1385 18.5033 27.2094 18.5033 28.8983C18.5033 30.5872 17.4509 31.1767 16.1873 30.2427Z" fill="currentColor"/>
<path d="M43.2776 12.2041L25.5122 23.4159C25.0499 23.7066 24.5312 23.8964 23.9905 23.9726V45.9399C25.0192 45.8088 26.0113 45.474 26.9092 44.9551L40.0576 37.3632C42.4769 35.9665 43.9673 33.3853 43.9676 30.5919V15.41C43.9673 14.3045 43.7321 13.2118 43.2776 12.2041ZM29.0401 41.4685C27.8141 42.287 26.8471 41.6365 26.8471 40.0378C26.8471 38.439 27.8141 36.4263 29.0401 35.5195C30.3037 34.5807 31.3561 35.175 31.3561 36.8638C31.3561 38.5527 30.3038 40.6246 29.0401 41.4685ZM29.0401 30.3309C27.8141 31.1494 26.8471 30.4989 26.8471 28.9002C26.8471 27.3014 27.8141 25.2887 29.0401 24.3818C30.3037 23.4468 31.3552 24.0373 31.3552 25.7223C31.3552 27.4074 30.3038 29.487 29.0401 30.3309ZM39.3207 34.8163C38.0946 35.6349 37.1277 34.9853 37.1277 33.3857C37.1277 31.786 38.0946 29.7742 39.3207 28.8673C40.5843 27.9332 41.6366 28.5228 41.6366 30.2116C41.6366 31.9005 40.5843 33.9724 39.3207 34.8163ZM39.3207 23.6787C38.0946 24.5021 37.1277 23.8449 37.1277 22.249C37.1277 20.653 38.0946 18.6375 39.3207 17.7306C40.5843 16.7919 41.6366 17.3871 41.6366 19.075C41.6366 20.7629 40.5843 22.8348 39.3207 23.6787Z" fill="currentColor"/>
</g>
<defs>
<clipPath id="clip0_22_220">
<rect width="46" height="46" fill="white"/>
</clipPath>
</defs>
</svg>
