<svg width="18" height="18" viewBox="0 0 18 18" fill="none" xmlns="http://www.w3.org/2000/svg">
<path fill-rule="evenodd" clip-rule="evenodd" d="M7.8908 1.71774C8.47146 1.42742 9.15491 1.42742 9.73556 1.71774L15.2231 4.46151C16.1905 4.9452 16.1905 6.3257 15.2231 6.80939L9.73556 9.55315C9.15491 9.84348 8.47145 9.84348 7.8908 9.55315L2.40327 6.80938C1.43589 6.3257 1.43589 4.9452 2.40327 4.46151L7.8908 1.71774Z" fill="currentColor"/>
<path opacity="0.4" fill-rule="evenodd" clip-rule="evenodd" d="M1.54862 12.9069C1.67479 12.6231 2.00721 12.4952 2.29109 12.6214L8.43188 15.3506C8.67429 15.4584 8.95099 15.4584 9.1934 15.3506L15.3342 12.6214C15.6181 12.4952 15.9505 12.6231 16.0767 12.9069C16.2028 13.1908 16.075 13.5232 15.7911 13.6494L9.6503 16.3787C9.11701 16.6157 8.50827 16.6157 7.97498 16.3787L1.83419 13.6494C1.5503 13.5232 1.42245 13.1908 1.54862 12.9069Z" fill="currentColor"/>
<path opacity="0.4" fill-rule="evenodd" clip-rule="evenodd" d="M1.54862 9.53194C1.67479 9.24806 2.00721 9.1202 2.29109 9.24638L8.43188 11.9756C8.67429 12.0834 8.95099 12.0834 9.1934 11.9756L15.3342 9.24638C15.6181 9.1202 15.9505 9.24806 16.0767 9.53194C16.2028 9.81583 16.075 10.1482 15.7911 10.2744L9.6503 13.0037C9.11701 13.2407 8.50827 13.2407 7.97498 13.0037L1.83419 10.2744C1.5503 10.1482 1.42245 9.81583 1.54862 9.53194Z" fill="currentColor"/>
</svg>
