<svg width="18" height="18" viewBox="0 0 18 18" fill="none" xmlns="http://www.w3.org/2000/svg">
<path d="M2.65385 13.7308L2.86218 13.2308C3.17272 12.4855 3.90093 12 4.70833 12H13.2917C14.0991 12 14.8273 12.4855 15.1378 13.2308L15.3462 13.7308C15.8951 15.0481 14.9272 16.5 13.5 16.5H4.5C3.07284 16.5 2.10494 15.0481 2.65385 13.7308Z" fill="currentColor"/>
<path opacity="0.4" d="M14.25 6.83333C14.25 9.77885 10.9688 13.5 9 13.5C7.03125 13.5 3.75 9.77885 3.75 6.83333C3.75 3.88781 6.1005 1.5 9 1.5C11.8995 1.5 14.25 3.88781 14.25 6.83333Z" fill="currentColor"/>
<path d="M10.875 6.75C10.875 7.78553 10.0355 8.625 9 8.625C7.96447 8.625 7.125 7.78553 7.125 6.75C7.125 5.71447 7.96447 4.875 9 4.875C10.0355 4.875 10.875 5.71447 10.875 6.75Z" fill="currentColor"/>
</svg>
