<svg width="16" height="16" viewBox="0 0 16 16" fill="none" xmlns="http://www.w3.org/2000/svg">
<path opacity="0.5" d="M1.33301 10.6665C1.33301 8.78117 1.33301 7.83784 1.91901 7.2525C2.50434 6.6665 3.44767 6.6665 5.33301 6.6665H10.6663C12.5517 6.6665 13.495 6.6665 14.0803 7.2525C14.6663 7.83784 14.6663 8.78117 14.6663 10.6665C14.6663 12.5518 14.6663 13.4952 14.0803 14.0805C13.495 14.6665 12.5517 14.6665 10.6663 14.6665H5.33301C3.44767 14.6665 2.50434 14.6665 1.91901 14.0805C1.33301 13.4952 1.33301 12.5518 1.33301 10.6665Z" fill="currentColor"/>
<path d="M4.5 5.3335C4.5 4.40524 4.86875 3.515 5.52513 2.85862C6.1815 2.20224 7.07174 1.8335 8 1.8335C8.92826 1.8335 9.8185 2.20224 10.4749 2.85862C11.1313 3.515 11.5 4.40524 11.5 5.3335V6.6695C11.878 6.67283 12.2093 6.6815 12.5 6.70283V5.3335C12.5 4.14002 12.0259 2.99543 11.182 2.15152C10.3381 1.3076 9.19347 0.833496 8 0.833496C6.80653 0.833496 5.66193 1.3076 4.81802 2.15152C3.97411 2.99543 3.5 4.14002 3.5 5.3335V6.7035C3.83289 6.68155 4.16639 6.67021 4.5 6.6695V5.3335Z" fill="currentColor"/>
</svg>
