<svg width="35" height="35" viewBox="0 0 35 35" fill="none" xmlns="http://www.w3.org/2000/svg">
    <path
        d="M27.709 11.6667C30.1252 11.6667 32.084 9.70799 32.084 7.29175C32.084 4.8755 30.1252 2.91675 27.709 2.91675C25.2927 2.91675 23.334 4.8755 23.334 7.29175C23.334 9.70799 25.2927 11.6667 27.709 11.6667Z"
        fill="currentColor" />
    <path opacity="0.4"
        d="M27.7077 13.8542C24.091 13.8542 21.1452 10.9083 21.1452 7.29167C21.1452 6.24167 21.4223 5.26458 21.8598 4.375H10.966C5.93477 4.375 2.91602 7.37917 2.91602 12.425V24.0187C2.91602 29.0792 5.93477 32.0833 10.966 32.0833H22.5598C27.6056 32.0833 30.6098 29.0792 30.6098 24.0333V13.1396C29.7348 13.5771 28.7577 13.8542 27.7077 13.8542Z"
        fill="currentColor" />
    <path
        d="M17.1354 20.4167H9.84375C9.24583 20.4167 8.75 19.9209 8.75 19.323C8.75 18.7251 9.24583 18.2292 9.84375 18.2292H17.1354C17.7333 18.2292 18.2292 18.7251 18.2292 19.323C18.2292 19.9209 17.7333 20.4167 17.1354 20.4167Z"
        fill="currentColor" />
    <path
        d="M22.9688 26.25H9.84375C9.24583 26.25 8.75 25.7542 8.75 25.1563C8.75 24.5583 9.24583 24.0625 9.84375 24.0625H22.9688C23.5667 24.0625 24.0625 24.5583 24.0625 25.1563C24.0625 25.7542 23.5667 26.25 22.9688 26.25Z"
        fill="currentColor" />
</svg>
    