<svg width="30" height="30" viewBox="0 0 30 30" fill="none" xmlns="http://www.w3.org/2000/svg">
<path opacity="0.2" d="M22.5 11.25C22.5 12.7334 22.0601 14.1834 21.236 15.4168C20.4119 16.6501 19.2406 17.6114 17.8701 18.1791C16.4997 18.7468 14.9917 18.8953 13.5368 18.6059C12.082 18.3165 10.7456 17.6022 9.6967 16.5533C8.64781 15.5044 7.9335 14.168 7.64411 12.7132C7.35472 11.2583 7.50325 9.75032 8.07091 8.37987C8.63856 7.00943 9.59986 5.83809 10.8332 5.01398C12.0666 4.18987 13.5166 3.75 15 3.75C16.9891 3.75 18.8968 4.54018 20.3033 5.9467C21.7098 7.35322 22.5 9.26088 22.5 11.25Z" fill="#FBC04E"/>
<path d="M27.061 24.8435C25.2762 21.758 22.5258 19.5455 19.3161 18.4966C20.9038 17.5515 22.1373 16.1113 22.8272 14.3972C23.5172 12.6831 23.6254 10.7899 23.1353 9.00839C22.6451 7.22685 21.5837 5.65547 20.1141 4.53554C18.6444 3.41562 16.8478 2.80908 15 2.80908C13.1523 2.80908 11.3557 3.41562 9.88601 4.53554C8.41636 5.65547 7.35496 7.22685 6.86482 9.00839C6.37467 10.7899 6.48289 12.6831 7.17284 14.3972C7.86279 16.1113 9.09633 17.5515 10.684 18.4966C7.47426 19.5443 4.72387 21.7568 2.93911 24.8435C2.87365 24.9502 2.83024 25.069 2.81143 25.1928C2.79261 25.3165 2.79878 25.4428 2.82956 25.5642C2.86035 25.6855 2.91512 25.7995 2.99066 25.8993C3.06619 25.9991 3.16096 26.0828 3.26937 26.1455C3.37778 26.2081 3.49763 26.2483 3.62185 26.2639C3.74607 26.2794 3.87215 26.2699 3.99265 26.236C4.11314 26.202 4.22561 26.1443 4.32343 26.0661C4.42124 25.988 4.50241 25.891 4.56215 25.781C6.76996 21.9654 10.6723 19.6873 15 19.6873C19.3278 19.6873 23.2301 21.9654 25.4379 25.781C25.4977 25.891 25.5788 25.988 25.6767 26.0661C25.7745 26.1443 25.8869 26.202 26.0074 26.236C26.1279 26.2699 26.254 26.2794 26.3782 26.2639C26.5025 26.2483 26.6223 26.2081 26.7307 26.1455C26.8391 26.0828 26.9339 25.9991 27.0094 25.8993C27.085 25.7995 27.1397 25.6855 27.1705 25.5642C27.2013 25.4428 27.2075 25.3165 27.1887 25.1928C27.1698 25.069 27.1264 24.9502 27.061 24.8435ZM8.43754 11.2498C8.43754 9.95183 8.82243 8.68304 9.54352 7.60384C10.2646 6.52464 11.2895 5.68351 12.4887 5.18681C13.6878 4.69011 15.0073 4.56015 16.2803 4.81337C17.5533 5.06658 18.7226 5.6916 19.6404 6.60938C20.5582 7.52716 21.1832 8.69649 21.4364 9.96949C21.6897 11.2425 21.5597 12.562 21.063 13.7611C20.5663 14.9603 19.7252 15.9852 18.646 16.7063C17.5668 17.4274 16.298 17.8123 15 17.8123C13.2601 17.8104 11.592 17.1184 10.3617 15.8881C9.13141 14.6578 8.4394 12.9897 8.43754 11.2498Z" fill="#FBC04E"/>
</svg>
