<svg width="46" height="46" viewBox="0 0 46 46" fill="none" xmlns="http://www.w3.org/2000/svg">
<g clip-path="url(#clip0_22_207)">
<path d="M23 0C10.2976 0 0 10.2976 0 23C0 35.7024 10.2976 46 23 46C35.7024 46 46 35.7024 46 23C45.9858 10.3036 35.6964 0.0142253 23 0ZM23.8209 6.63084L31.8167 3.43465C32.7241 3.84531 33.6019 4.31849 34.4438 4.85081L34.4648 4.86392C35.2921 5.388 36.0827 5.96787 36.8314 6.5994L36.8958 6.65555C37.2316 6.94155 37.5581 7.23766 37.8755 7.54313C37.9156 7.58244 37.9575 7.61987 37.9975 7.65993C38.3303 7.98486 38.6527 8.31991 38.9645 8.66468C38.9903 8.69388 39.015 8.72458 39.0409 8.75378C39.3145 9.06037 39.5777 9.37782 39.833 9.7005C39.8944 9.77725 39.9558 9.85399 40.0153 9.93073C40.2923 10.2894 40.5603 10.6543 40.8134 11.0309L39.2194 17.8067L31.3772 20.4211L23.8228 14.3765L23.8209 6.63084ZM5.98397 9.93522C6.04349 9.85848 6.10413 9.78174 6.16553 9.70537C6.41784 9.3853 6.67876 9.0731 6.94829 8.76838C6.97749 8.73618 7.00444 8.70324 7.03327 8.67104C7.34323 8.32552 7.66405 7.99085 7.99647 7.66667C8.03465 7.62923 8.07283 7.58992 8.11289 7.55548C8.42772 7.25189 8.75153 6.95765 9.08433 6.67314L9.16107 6.60876C9.90303 5.98172 10.6862 5.4056 11.5052 4.88376L11.5352 4.86466C12.3722 4.33346 13.2445 3.86104 14.1466 3.45L22.1791 6.63084V14.3743L14.6243 20.4177L6.78208 17.8082L5.1881 11.0324C5.44341 10.6566 5.70845 10.2923 5.98397 9.93522ZM5.06007 34.7647C4.83472 34.421 4.61909 34.071 4.41357 33.7142L4.36379 33.6281C4.15939 33.2733 3.96585 32.9124 3.78354 32.5459L3.77718 32.5343C3.3931 31.7631 3.05581 30.9695 2.76756 30.1576V30.1501C2.6313 29.7667 2.50701 29.374 2.39209 28.9791L2.35054 28.8335C2.24535 28.4625 2.14989 28.0874 2.06453 27.7082C2.05705 27.6711 2.04769 27.6359 2.0402 27.5993C1.8519 26.7427 1.71676 25.8757 1.63516 25.0024L6.31564 19.386L14.1036 21.9818L16.3639 31.0223L12.65 35.9637L5.06007 34.7647ZM28.1054 43.8479C27.722 43.943 27.3286 44.0249 26.9352 44.0987C26.8801 44.1095 26.824 44.1185 26.7689 44.1286C26.4339 44.1885 26.0951 44.2398 25.7556 44.2817C25.665 44.2933 25.5751 44.3057 25.4849 44.3166C25.1697 44.3532 24.8515 44.3809 24.5326 44.4038C24.4323 44.4105 24.3331 44.4206 24.2327 44.427C23.8251 44.4521 23.414 44.4667 23 44.4667C22.6208 44.4667 22.2438 44.4566 21.8691 44.4367C21.8238 44.4367 21.7804 44.4292 21.7351 44.4259C21.4015 44.4068 21.0695 44.3817 20.7382 44.3495L20.7 44.3424C19.9741 44.2638 19.2524 44.1485 18.5381 43.9976L14.0033 36.8973L17.6588 32.0229H28.3412L32.0566 36.9295L28.1054 43.8479ZM43.9654 27.6C43.9576 27.6367 43.9486 27.6722 43.9407 27.7089C43.855 28.0878 43.7595 28.4629 43.6547 28.8342L43.6135 28.9798C43.4982 29.3748 43.3743 29.766 43.2377 30.1508V30.1583C42.9494 30.9703 42.6125 31.7639 42.2281 32.535L42.2217 32.5466C42.0383 32.9135 41.8451 33.2744 41.6415 33.6289L41.5917 33.715C41.3873 34.0729 41.172 34.4221 40.9463 34.7639L33.3822 35.9566L29.6424 31.0193L31.9016 21.981L39.6896 19.3853L44.3701 25.0016C44.2888 25.8754 44.1537 26.7431 43.9654 27.6Z" fill="currentColor"/>
</g>
<defs>
<clipPath id="clip0_22_207">
<rect width="46" height="46" fill="white"/>
</clipPath>
</defs>
</svg>
