<svg width="24" height="24" viewBox="0 0 24 24" fill="none" xmlns="http://www.w3.org/2000/svg">
<path fill-rule="evenodd" clip-rule="evenodd" d="M10.47 8.46983C10.3295 8.61045 10.2507 8.80108 10.2507 8.99983C10.2507 9.19858 10.3295 9.3892 10.47 9.52983L12.19 11.2498H4C3.80109 11.2498 3.61032 11.3288 3.46967 11.4695C3.32902 11.6102 3.25 11.8009 3.25 11.9998C3.25 12.1987 3.32902 12.3895 3.46967 12.5302C3.61032 12.6708 3.80109 12.7498 4 12.7498H12.19L10.47 14.4698C10.3963 14.5385 10.3372 14.6213 10.2962 14.7133C10.2552 14.8053 10.2332 14.9046 10.2314 15.0053C10.2296 15.106 10.2482 15.206 10.2859 15.2994C10.3236 15.3928 10.3797 15.4776 10.451 15.5489C10.5222 15.6201 10.607 15.6762 10.7004 15.714C10.7938 15.7517 10.8938 15.7702 10.9945 15.7684C11.0952 15.7666 11.1945 15.7446 11.2865 15.7036C11.3785 15.6626 11.4613 15.6035 11.53 15.5298L14.53 12.5298C14.6705 12.3892 14.7493 12.1986 14.7493 11.9998C14.7493 11.8011 14.6705 11.6105 14.53 11.4698L11.53 8.46983C11.3894 8.32938 11.1988 8.25049 11 8.25049C10.8012 8.25049 10.6106 8.32938 10.47 8.46983Z" fill="#FBC04E"/>
<path opacity="0.5" d="M12 20C14.1217 20 16.1566 19.1571 17.6569 17.6569C19.1571 16.1566 20 14.1217 20 12C20 9.87827 19.1571 7.84344 17.6569 6.34315C16.1566 4.84285 14.1217 4 12 4V20Z" fill="#FBC04E"/>
</svg>
